<svg width="110" height="197" viewBox="0 0 110 197" fill="none" xmlns="http://www.w3.org/2000/svg">
<g filter="url(#filter0_i_14007_2447)">
<path d="M0 26.4425C0 17.6059 7.16344 10.4425 16 10.4425H94C102.837 10.4425 110 17.6059 110 26.4425V180.443C110 189.279 102.837 196.443 94 196.443H16C7.16344 196.443 0 189.279 0 180.443V26.4425Z" fill="url(#paint0_radial_14007_2447)"/>
<path d="M16 10.9425H94C102.56 10.9425 109.5 17.8821 109.5 26.4425V180.443C109.5 189.003 102.56 195.943 94 195.943H16C7.43959 195.943 0.5 189.003 0.5 180.443V26.4425C0.5 17.8821 7.43959 10.9425 16 10.9425Z" stroke="white" stroke-opacity="0.4"/>
<path d="M38.6311 57.9425V48.9275H36.4861L37.7461 47.2925H40.2811V57.9425H38.6311ZM43.5767 58.0625C43.2267 58.0625 42.9217 57.9375 42.6617 57.6875C42.4117 57.4275 42.2867 57.1175 42.2867 56.7575C42.2867 56.4075 42.4117 56.1025 42.6617 55.8425C42.9217 55.5825 43.2267 55.4525 43.5767 55.4525C43.9367 55.4525 44.2417 55.5825 44.4917 55.8425C44.7517 56.1025 44.8817 56.4075 44.8817 56.7575C44.8817 57.1175 44.7517 57.4275 44.4917 57.6875C44.2417 57.9375 43.9367 58.0625 43.5767 58.0625ZM52.8899 56.9525C52.1699 57.7125 51.2449 58.0925 50.1149 58.0925C48.9849 58.0925 48.0599 57.7125 47.3399 56.9525C46.6199 56.1825 46.2599 55.1975 46.2599 53.9975V51.2075C46.2599 50.0075 46.6199 49.0275 47.3399 48.2675C48.0599 47.4975 48.9849 47.1125 50.1149 47.1125C51.2449 47.1125 52.1699 47.4975 52.8899 48.2675C53.6199 49.0275 53.9849 50.0075 53.9849 51.2075V53.9975C53.9849 55.1975 53.6199 56.1825 52.8899 56.9525ZM50.1149 56.4725C50.7849 56.4725 51.3199 56.2525 51.7199 55.8125C52.1299 55.3725 52.3349 54.7675 52.3349 53.9975V51.2075C52.3349 50.4375 52.1299 49.8325 51.7199 49.3925C51.3199 48.9525 50.7849 48.7325 50.1149 48.7325C49.4549 48.7325 48.9199 48.9525 48.5099 49.3925C48.1099 49.8325 47.9099 50.4375 47.9099 51.2075V53.9975C47.9099 54.7675 48.1099 55.3725 48.5099 55.8125C48.9199 56.2525 49.4549 56.4725 50.1149 56.4725ZM62.2796 56.9525C61.5596 57.7125 60.6346 58.0925 59.5046 58.0925C58.3746 58.0925 57.4496 57.7125 56.7296 56.9525C56.0096 56.1825 55.6496 55.1975 55.6496 53.9975V51.2075C55.6496 50.0075 56.0096 49.0275 56.7296 48.2675C57.4496 47.4975 58.3746 47.1125 59.5046 47.1125C60.6346 47.1125 61.5596 47.4975 62.2796 48.2675C63.0096 49.0275 63.3746 50.0075 63.3746 51.2075V53.9975C63.3746 55.1975 63.0096 56.1825 62.2796 56.9525ZM59.5046 56.4725C60.1746 56.4725 60.7096 56.2525 61.1096 55.8125C61.5196 55.3725 61.7246 54.7675 61.7246 53.9975V51.2075C61.7246 50.4375 61.5196 49.8325 61.1096 49.3925C60.7096 48.9525 60.1746 48.7325 59.5046 48.7325C58.8446 48.7325 58.3096 48.9525 57.8996 49.3925C57.4996 49.8325 57.2996 50.4375 57.2996 51.2075V53.9975C57.2996 54.7675 57.4996 55.3725 57.8996 55.8125C58.3096 56.2525 58.8446 56.4725 59.5046 56.4725ZM71.6692 56.9525C70.9492 57.7125 70.0242 58.0925 68.8942 58.0925C67.7642 58.0925 66.8392 57.7125 66.1192 56.9525C65.3992 56.1825 65.0392 55.1975 65.0392 53.9975V51.2075C65.0392 50.0075 65.3992 49.0275 66.1192 48.2675C66.8392 47.4975 67.7642 47.1125 68.8942 47.1125C70.0242 47.1125 70.9492 47.4975 71.6692 48.2675C72.3992 49.0275 72.7642 50.0075 72.7642 51.2075V53.9975C72.7642 55.1975 72.3992 56.1825 71.6692 56.9525ZM68.8942 56.4725C69.5642 56.4725 70.0992 56.2525 70.4992 55.8125C70.9092 55.3725 71.1142 54.7675 71.1142 53.9975V51.2075C71.1142 50.4375 70.9092 49.8325 70.4992 49.3925C70.0992 48.9525 69.5642 48.7325 68.8942 48.7325C68.2342 48.7325 67.6992 48.9525 67.2892 49.3925C66.8892 49.8325 66.6892 50.4375 66.6892 51.2075V53.9975C66.6892 54.7675 66.8892 55.3725 67.2892 55.8125C67.6992 56.2525 68.2342 56.4725 68.8942 56.4725Z" fill="white" fill-opacity="0.9"/>
<path d="M36.4111 53.8175H73.5892V54.9125H36.4111V53.8175Z" fill="white" fill-opacity="0.9"/>
<path d="M21.6231 92.9425V74.1265L22.1671 74.6065C21.8471 75.2678 21.3885 75.8865 20.7911 76.4625C20.1938 77.0172 19.4898 77.4972 18.6791 77.9025C17.8898 78.2865 17.0045 78.5745 16.0231 78.7665V73.9665C16.8125 73.8598 17.6338 73.6038 18.4871 73.1985C19.3405 72.7718 20.1085 72.2705 20.7911 71.6945C21.4951 71.0972 21.9965 70.4998 22.2951 69.9025H26.4231V92.9425H21.6231ZM28.9669 92.9425V87.6625H34.2469V92.9425H28.9669ZM44.6766 93.2625C43.0553 93.2625 41.594 92.9745 40.2926 92.3985C39.0126 91.8012 37.9673 90.9372 37.1566 89.8065C36.3673 88.6545 35.9086 87.2572 35.7806 85.6145H40.6766C40.8473 86.9372 41.2526 87.9185 41.8926 88.5585C42.5326 89.1772 43.3966 89.4865 44.4846 89.4865C45.4233 89.4865 46.202 89.2092 46.8206 88.6545C47.4606 88.0998 47.7806 87.2892 47.7806 86.2225C47.7806 85.1985 47.4713 84.3772 46.8526 83.7585C46.2553 83.1185 45.2313 82.7985 43.7806 82.7985H41.7326V79.0865H43.6846C44.9433 79.0865 45.85 78.8092 46.4046 78.2545C46.9593 77.6998 47.2366 76.9958 47.2366 76.1425C47.2366 75.3318 47.0233 74.6705 46.5966 74.1585C46.17 73.6252 45.4446 73.3585 44.4206 73.3585C43.546 73.3585 42.7886 73.6252 42.1486 74.1585C41.5086 74.6918 41.114 75.5025 40.9646 76.5905H36.0366C36.2286 75.1398 36.6873 73.8918 37.4126 72.8465C38.138 71.8012 39.1086 71.0012 40.3246 70.4465C41.5406 69.8705 42.9593 69.5825 44.5806 69.5825C46.202 69.5825 47.5886 69.8385 48.7406 70.3505C49.914 70.8412 50.8206 71.5452 51.4606 72.4625C52.1006 73.3798 52.4206 74.4785 52.4206 75.7585C52.4206 76.8252 52.1753 77.7638 51.6846 78.5745C51.194 79.3852 50.5753 80.0145 49.8286 80.4625C49.1033 80.9105 48.3673 81.1345 47.6206 81.1345L47.5886 80.4625C48.7193 80.4625 49.69 80.7398 50.5006 81.2945C51.3113 81.8278 51.93 82.5532 52.3566 83.4705C52.7833 84.3665 52.9966 85.3692 52.9966 86.4785C52.9966 87.8652 52.634 89.0705 51.9086 90.0945C51.1833 91.1185 50.1913 91.9078 48.9326 92.4625C47.674 92.9958 46.2553 93.2625 44.6766 93.2625ZM63.1736 93.2625C60.8056 93.2625 58.8643 92.6545 57.3496 91.4385C55.835 90.2225 54.8963 88.5158 54.5336 86.3185H59.4296C59.6003 87.2998 60.027 88.0785 60.7096 88.6545C61.3923 89.2092 62.171 89.4865 63.0456 89.4865C64.0483 89.4865 64.8483 89.1452 65.4456 88.4625C66.0643 87.7585 66.3736 86.7025 66.3736 85.2945C66.3736 83.9505 66.0856 82.9265 65.5096 82.2225C64.9336 81.4972 64.1443 81.1345 63.1416 81.1345C62.5656 81.1345 62.0216 81.2732 61.5096 81.5505C60.9976 81.8065 60.571 82.2332 60.2296 82.8305H55.7496L56.9336 69.9025H70.1816V73.6785H58.6616L61.2856 73.3265L60.7096 80.5265L59.1096 80.3025C59.6643 79.4278 60.3363 78.7665 61.1256 78.3185C61.9363 77.8492 62.9603 77.6145 64.1976 77.6145C65.6696 77.6145 66.9603 77.9345 68.0696 78.5745C69.179 79.2145 70.043 80.1105 70.6616 81.2625C71.2803 82.4145 71.5896 83.7798 71.5896 85.3585C71.5896 87.0225 71.2376 88.4412 70.5336 89.6145C69.8296 90.7878 68.8483 91.6945 67.5896 92.3345C66.331 92.9532 64.859 93.2625 63.1736 93.2625ZM83.3964 93.2625C81.4764 93.2625 79.759 92.7612 78.2444 91.7585C76.751 90.7345 75.5777 89.3265 74.7244 87.5345C73.871 85.7212 73.4444 83.6518 73.4444 81.3265C73.4444 79.0012 73.871 76.9638 74.7244 75.2145C75.5777 73.4438 76.751 72.0678 78.2444 71.0865C79.759 70.0838 81.4764 69.5825 83.3964 69.5825C85.3377 69.5825 87.055 70.0838 88.5484 71.0865C90.0417 72.0678 91.215 73.4438 92.0684 75.2145C92.9217 76.9638 93.3484 79.0012 93.3484 81.3265C93.3484 83.6732 92.9217 85.7425 92.0684 87.5345C91.215 89.3265 90.031 90.7345 88.5164 91.7585C87.023 92.7612 85.3164 93.2625 83.3964 93.2625ZM83.3964 89.1665C84.4844 89.1665 85.3804 88.8038 86.0844 88.0785C86.7884 87.3532 87.311 86.3932 87.6524 85.1985C87.9937 84.0038 88.1644 82.7025 88.1644 81.2945C88.1644 79.8865 87.9937 78.6065 87.6524 77.4545C87.311 76.3025 86.7884 75.3852 86.0844 74.7025C85.3804 74.0198 84.4844 73.6785 83.3964 73.6785C82.3084 73.6785 81.4124 74.0305 80.7084 74.7345C80.0044 75.4172 79.4817 76.3345 79.1404 77.4865C78.799 78.6385 78.6284 79.9078 78.6284 81.2945C78.6284 82.7238 78.799 84.0358 79.1404 85.2305C79.4817 86.4252 80.0044 87.3852 80.7084 88.1105C81.4337 88.8145 82.3297 89.1665 83.3964 89.1665Z" fill="white"/>
<path d="M38.474 115.083C38.1193 115.083 37.7787 115.055 37.452 114.999C37.1253 114.952 36.8873 114.891 36.738 114.817V113.557C36.9433 113.641 37.1907 113.711 37.48 113.767C37.7693 113.823 38.0633 113.851 38.362 113.851C38.978 113.851 39.44 113.725 39.748 113.473C40.0653 113.211 40.224 112.801 40.224 112.241V104.863H41.708V112.297C41.708 113.23 41.4327 113.93 40.882 114.397C40.3313 114.854 39.5287 115.083 38.474 115.083ZM46.7543 115.083C46.0357 115.083 45.401 114.924 44.8503 114.607C44.309 114.289 43.8843 113.851 43.5763 113.291C43.2683 112.731 43.1143 112.087 43.1143 111.359C43.1143 110.621 43.2637 109.977 43.5623 109.427C43.8703 108.867 44.2997 108.433 44.8503 108.125C45.401 107.817 46.031 107.663 46.7403 107.663C47.431 107.663 48.0283 107.812 48.5323 108.111C49.0457 108.4 49.4377 108.806 49.7083 109.329C49.9883 109.851 50.1283 110.472 50.1283 111.191C50.1283 111.303 50.1237 111.41 50.1143 111.513C50.1143 111.606 50.105 111.704 50.0863 111.807H44.0943V110.715H49.0643L48.7003 111.149C48.7003 110.383 48.5277 109.8 48.1823 109.399C47.837 108.997 47.3563 108.797 46.7403 108.797C46.0777 108.797 45.5503 109.025 45.1583 109.483C44.7757 109.931 44.5843 110.556 44.5843 111.359C44.5843 112.171 44.7757 112.805 45.1583 113.263C45.5503 113.72 46.0917 113.949 46.7823 113.949C47.2023 113.949 47.5663 113.865 47.8743 113.697C48.1823 113.519 48.411 113.263 48.5603 112.927H49.9323C49.699 113.599 49.3023 114.126 48.7423 114.509C48.1917 114.891 47.529 115.083 46.7543 115.083ZM54.5327 115.083C53.702 115.083 53.0907 114.891 52.6987 114.509C52.316 114.117 52.1247 113.543 52.1247 112.787V106.165L53.5667 105.619V112.801C53.5667 113.174 53.6647 113.449 53.8607 113.627C54.0567 113.804 54.374 113.893 54.8127 113.893C54.9807 113.893 55.13 113.879 55.2607 113.851C55.3913 113.823 55.5033 113.79 55.5967 113.753V114.929C55.494 114.975 55.3493 115.013 55.1627 115.041C54.976 115.069 54.766 115.083 54.5327 115.083ZM50.6967 108.965V107.803H55.5967V108.965H50.6967ZM59.8937 115.083C59.1657 115.083 58.5263 114.924 57.9757 114.607C57.425 114.28 56.9957 113.837 56.6877 113.277C56.3797 112.707 56.2257 112.063 56.2257 111.345C56.2257 110.617 56.3797 109.977 56.6877 109.427C57.005 108.876 57.4343 108.447 57.9757 108.139C58.5263 107.821 59.1657 107.663 59.8937 107.663C60.631 107.663 61.275 107.821 61.8257 108.139C62.3763 108.447 62.801 108.876 63.0997 109.427C63.4077 109.977 63.5617 110.617 63.5617 111.345C63.5617 112.063 63.4077 112.707 63.0997 113.277C62.801 113.837 62.3763 114.28 61.8257 114.607C61.275 114.924 60.631 115.083 59.8937 115.083ZM59.8937 113.893C60.3323 113.893 60.7103 113.785 61.0277 113.571C61.3543 113.356 61.611 113.057 61.7977 112.675C61.9843 112.292 62.0777 111.844 62.0777 111.331C62.0777 110.565 61.8723 109.963 61.4617 109.525C61.0603 109.077 60.5377 108.853 59.8937 108.853C59.259 108.853 58.7363 109.077 58.3257 109.525C57.9243 109.973 57.7237 110.575 57.7237 111.331C57.7237 111.844 57.8123 112.292 57.9897 112.675C58.1763 113.057 58.433 113.356 58.7597 113.571C59.0957 113.785 59.4737 113.893 59.8937 113.893ZM65.0572 114.943V107.803H66.4432V109.483H66.5132V114.943H65.0572ZM70.1252 114.943V110.351C70.1252 109.856 69.9992 109.487 69.7472 109.245C69.5045 109.002 69.1405 108.881 68.6552 108.881C68.2352 108.881 67.8618 108.974 67.5352 109.161C67.2178 109.347 66.9658 109.604 66.7792 109.931C66.6018 110.257 66.5132 110.645 66.5132 111.093L66.3312 109.385C66.5645 108.853 66.9238 108.433 67.4092 108.125C67.8945 107.817 68.4592 107.663 69.1032 107.663C69.8685 107.663 70.4705 107.877 70.9092 108.307C71.3478 108.736 71.5672 109.305 71.5672 110.015V114.943H70.1252Z" fill="white"/>
<line x1="14.5" y1="133.943" x2="95.5" y2="133.943" stroke="white" stroke-opacity="0.1"/>
<path d="M27.1974 164.603C26.9734 164.603 26.728 164.587 26.4614 164.555C26.1947 164.533 25.9547 164.496 25.7414 164.443V159.547L24.1894 160.075V158.683L25.7414 158.155V157.163L24.1894 157.691V156.299L25.7414 155.771V153.019H28.0774V154.971L30.5734 154.107V155.499L28.0774 156.363V157.355L30.5734 156.491V157.867L28.0774 158.731V162.651C28.7494 162.533 29.272 162.309 29.6454 161.979C30.0294 161.648 30.296 161.216 30.4454 160.683C30.6054 160.149 30.6854 159.536 30.6854 158.843H32.8774C32.8774 159.579 32.7814 160.293 32.5894 160.987C32.3974 161.669 32.0827 162.283 31.6454 162.827C31.2187 163.371 30.6374 163.803 29.9014 164.123C29.176 164.443 28.2747 164.603 27.1974 164.603ZM38.0336 164.603C37.223 164.603 36.4923 164.459 35.8416 164.171C35.2016 163.872 34.679 163.44 34.2736 162.875C33.879 162.299 33.6496 161.6 33.5856 160.779H36.0336C36.119 161.44 36.3216 161.931 36.6416 162.251C36.9616 162.56 37.3936 162.715 37.9376 162.715C38.407 162.715 38.7963 162.576 39.1056 162.299C39.4256 162.021 39.5856 161.616 39.5856 161.083C39.5856 160.571 39.431 160.16 39.1216 159.851C38.823 159.531 38.311 159.371 37.5856 159.371H36.5616V157.515H37.5376C38.167 157.515 38.6203 157.376 38.8976 157.099C39.175 156.821 39.3136 156.469 39.3136 156.043C39.3136 155.637 39.207 155.307 38.9936 155.051C38.7803 154.784 38.4176 154.651 37.9056 154.651C37.4683 154.651 37.0896 154.784 36.7696 155.051C36.4496 155.317 36.2523 155.723 36.1776 156.267H33.7136C33.8096 155.541 34.039 154.917 34.4016 154.395C34.7643 153.872 35.2496 153.472 35.8576 153.195C36.4656 152.907 37.175 152.763 37.9856 152.763C38.7963 152.763 39.4896 152.891 40.0656 153.147C40.6523 153.392 41.1056 153.744 41.4256 154.203C41.7456 154.661 41.9056 155.211 41.9056 155.851C41.9056 156.384 41.783 156.853 41.5376 157.259C41.2923 157.664 40.983 157.979 40.6096 158.203C40.247 158.427 39.879 158.539 39.5056 158.539L39.4896 158.203C40.055 158.203 40.5403 158.341 40.9456 158.619C41.351 158.885 41.6603 159.248 41.8736 159.707C42.087 160.155 42.1936 160.656 42.1936 161.211C42.1936 161.904 42.0123 162.507 41.6496 163.019C41.287 163.531 40.791 163.925 40.1616 164.203C39.5323 164.469 38.823 164.603 38.0336 164.603ZM47.3751 164.603C46.5431 164.603 45.8338 164.453 45.2471 164.155C44.6711 163.845 44.2178 163.424 43.8871 162.891C43.5565 162.347 43.3485 161.723 43.2631 161.019H45.7111C45.7645 161.584 45.9351 162.011 46.2231 162.299C46.5111 162.576 46.9218 162.715 47.4551 162.715C47.8391 162.715 48.1591 162.64 48.4151 162.491C48.6818 162.331 48.8898 162.091 49.0391 161.771C49.1991 161.44 49.3111 161.013 49.3751 160.491C49.4498 159.968 49.4871 159.333 49.4871 158.587V157.547L50.1431 157.563C50.0258 158.075 49.8178 158.517 49.5191 158.891C49.2205 159.264 48.8418 159.552 48.3831 159.755C47.9351 159.957 47.4178 160.059 46.8311 160.059C46.0951 160.059 45.4445 159.909 44.8791 159.611C44.3245 159.301 43.8871 158.88 43.5671 158.347C43.2471 157.803 43.0871 157.179 43.0871 156.475C43.0871 155.728 43.2685 155.077 43.6311 154.523C43.9938 153.968 44.5005 153.536 45.1511 153.227C45.8018 152.917 46.5591 152.763 47.4231 152.763C48.9591 152.763 50.1378 153.259 50.9591 154.251C51.7911 155.232 52.2071 156.656 52.2071 158.523C52.2071 159.781 52.0151 160.869 51.6311 161.787C51.2578 162.693 50.7085 163.392 49.9831 163.883C49.2685 164.363 48.3991 164.603 47.3751 164.603ZM47.6471 158.203C48.2445 158.203 48.6925 158.043 48.9911 157.723C49.2898 157.403 49.4391 156.997 49.4391 156.507C49.4391 156.165 49.3698 155.856 49.2311 155.579C49.1031 155.291 48.9058 155.067 48.6391 154.907C48.3725 154.736 48.0418 154.651 47.6471 154.651C47.0605 154.651 46.6071 154.827 46.2871 155.179C45.9671 155.52 45.8071 155.941 45.8071 156.443C45.8071 156.944 45.9671 157.365 46.2871 157.707C46.6071 158.037 47.0605 158.203 47.6471 158.203ZM57.4376 164.603C56.6056 164.603 55.8963 164.453 55.3096 164.155C54.7336 163.845 54.2803 163.424 53.9496 162.891C53.619 162.347 53.411 161.723 53.3256 161.019H55.7736C55.827 161.584 55.9976 162.011 56.2856 162.299C56.5736 162.576 56.9843 162.715 57.5176 162.715C57.9016 162.715 58.2216 162.64 58.4776 162.491C58.7443 162.331 58.9523 162.091 59.1016 161.771C59.2616 161.44 59.3736 161.013 59.4376 160.491C59.5123 159.968 59.5496 159.333 59.5496 158.587V157.547L60.2056 157.563C60.0883 158.075 59.8803 158.517 59.5816 158.891C59.283 159.264 58.9043 159.552 58.4456 159.755C57.9976 159.957 57.4803 160.059 56.8936 160.059C56.1576 160.059 55.507 159.909 54.9416 159.611C54.387 159.301 53.9496 158.88 53.6296 158.347C53.3096 157.803 53.1496 157.179 53.1496 156.475C53.1496 155.728 53.331 155.077 53.6936 154.523C54.0563 153.968 54.563 153.536 55.2136 153.227C55.8643 152.917 56.6216 152.763 57.4856 152.763C59.0216 152.763 60.2003 153.259 61.0216 154.251C61.8536 155.232 62.2696 156.656 62.2696 158.523C62.2696 159.781 62.0776 160.869 61.6936 161.787C61.3203 162.693 60.771 163.392 60.0456 163.883C59.331 164.363 58.4616 164.603 57.4376 164.603ZM57.7096 158.203C58.307 158.203 58.755 158.043 59.0536 157.723C59.3523 157.403 59.5016 156.997 59.5016 156.507C59.5016 156.165 59.4323 155.856 59.2936 155.579C59.1656 155.291 58.9683 155.067 58.7016 154.907C58.435 154.736 58.1043 154.651 57.7096 154.651C57.123 154.651 56.6696 154.827 56.3496 155.179C56.0296 155.52 55.8696 155.941 55.8696 156.443C55.8696 156.944 56.0296 157.365 56.3496 157.707C56.6696 158.037 57.123 158.203 57.7096 158.203ZM62.9139 167.131V165.963C63.4152 165.813 63.7405 165.595 63.8899 165.307C64.0392 165.019 64.1139 164.645 64.1139 164.187L65.0899 164.443H62.8819V161.803H65.5219V163.675C65.5219 164.517 65.3245 165.243 64.9299 165.851C64.5352 166.459 63.8632 166.885 62.9139 167.131ZM70.5158 164.603C69.6838 164.603 68.9744 164.453 68.3878 164.155C67.8118 163.845 67.3584 163.424 67.0278 162.891C66.6971 162.347 66.4891 161.723 66.4038 161.019H68.8518C68.9051 161.584 69.0758 162.011 69.3638 162.299C69.6518 162.576 70.0624 162.715 70.5958 162.715C70.9798 162.715 71.2998 162.64 71.5558 162.491C71.8224 162.331 72.0304 162.091 72.1798 161.771C72.3398 161.44 72.4518 161.013 72.5158 160.491C72.5904 159.968 72.6278 159.333 72.6278 158.587V157.547L73.2838 157.563C73.1664 158.075 72.9584 158.517 72.6598 158.891C72.3611 159.264 71.9824 159.552 71.5238 159.755C71.0758 159.957 70.5584 160.059 69.9718 160.059C69.2358 160.059 68.5851 159.909 68.0198 159.611C67.4651 159.301 67.0278 158.88 66.7078 158.347C66.3878 157.803 66.2278 157.179 66.2278 156.475C66.2278 155.728 66.4091 155.077 66.7718 154.523C67.1344 153.968 67.6411 153.536 68.2918 153.227C68.9424 152.917 69.6998 152.763 70.5638 152.763C72.0998 152.763 73.2784 153.259 74.0998 154.251C74.9318 155.232 75.3478 156.656 75.3478 158.523C75.3478 159.781 75.1558 160.869 74.7718 161.787C74.3984 162.693 73.8491 163.392 73.1238 163.883C72.4091 164.363 71.5398 164.603 70.5158 164.603ZM70.7878 158.203C71.3851 158.203 71.8331 158.043 72.1318 157.723C72.4304 157.403 72.5798 156.997 72.5798 156.507C72.5798 156.165 72.5104 155.856 72.3718 155.579C72.2438 155.291 72.0464 155.067 71.7798 154.907C71.5131 154.736 71.1824 154.651 70.7878 154.651C70.2011 154.651 69.7478 154.827 69.4278 155.179C69.1078 155.52 68.9478 155.941 68.9478 156.443C68.9478 156.944 69.1078 157.365 69.4278 157.707C69.7478 158.037 70.2011 158.203 70.7878 158.203ZM80.5783 164.603C79.7463 164.603 79.0369 164.453 78.4503 164.155C77.8743 163.845 77.4209 163.424 77.0903 162.891C76.7596 162.347 76.5516 161.723 76.4663 161.019H78.9143C78.9676 161.584 79.1383 162.011 79.4263 162.299C79.7143 162.576 80.1249 162.715 80.6583 162.715C81.0423 162.715 81.3623 162.64 81.6183 162.491C81.8849 162.331 82.0929 162.091 82.2423 161.771C82.4023 161.44 82.5143 161.013 82.5783 160.491C82.6529 159.968 82.6903 159.333 82.6903 158.587V157.547L83.3463 157.563C83.2289 158.075 83.0209 158.517 82.7223 158.891C82.4236 159.264 82.0449 159.552 81.5863 159.755C81.1383 159.957 80.6209 160.059 80.0343 160.059C79.2983 160.059 78.6476 159.909 78.0823 159.611C77.5276 159.301 77.0903 158.88 76.7703 158.347C76.4503 157.803 76.2903 157.179 76.2903 156.475C76.2903 155.728 76.4716 155.077 76.8343 154.523C77.1969 153.968 77.7036 153.536 78.3543 153.227C79.0049 152.917 79.7623 152.763 80.6263 152.763C82.1623 152.763 83.3409 153.259 84.1623 154.251C84.9943 155.232 85.4103 156.656 85.4103 158.523C85.4103 159.781 85.2183 160.869 84.8343 161.787C84.4609 162.693 83.9116 163.392 83.1863 163.883C82.4716 164.363 81.6023 164.603 80.5783 164.603ZM80.8503 158.203C81.4476 158.203 81.8956 158.043 82.1943 157.723C82.4929 157.403 82.6423 156.997 82.6423 156.507C82.6423 156.165 82.5729 155.856 82.4343 155.579C82.3063 155.291 82.1089 155.067 81.8423 154.907C81.5756 154.736 81.2449 154.651 80.8503 154.651C80.2636 154.651 79.8103 154.827 79.4903 155.179C79.1703 155.52 79.0103 155.941 79.0103 156.443C79.0103 156.944 79.1703 157.365 79.4903 157.707C79.8103 158.037 80.2636 158.203 80.8503 158.203Z" fill="white"/>
<path d="M16.324 181.443V180.459H18.904C19.392 180.459 19.772 180.327 20.044 180.063C20.324 179.799 20.464 179.439 20.464 178.983C20.464 178.503 20.316 178.119 20.02 177.831C19.732 177.543 19.336 177.399 18.832 177.399H16.324V176.439H18.712C19.2 176.439 19.576 176.323 19.84 176.091C20.112 175.851 20.248 175.511 20.248 175.071C20.248 174.655 20.12 174.339 19.864 174.123C19.616 173.899 19.248 173.787 18.76 173.787H16.324V172.803H18.952C19.736 172.803 20.36 172.995 20.824 173.379C21.288 173.755 21.52 174.271 21.52 174.927C21.52 175.343 21.424 175.711 21.232 176.031C21.048 176.343 20.792 176.587 20.464 176.763C20.136 176.931 19.764 177.015 19.348 177.015L19.408 176.763C19.856 176.763 20.256 176.867 20.608 177.075C20.96 177.275 21.24 177.551 21.448 177.903C21.656 178.255 21.76 178.663 21.76 179.127C21.76 179.583 21.648 179.987 21.424 180.339C21.208 180.691 20.9 180.963 20.5 181.155C20.1 181.347 19.636 181.443 19.108 181.443H16.324ZM15.388 181.443V172.803H16.66V181.443H15.388ZM26.7969 181.443C26.7569 181.291 26.7289 181.123 26.7129 180.939C26.7049 180.755 26.7009 180.531 26.7009 180.267H26.6409V177.351C26.6409 176.959 26.5409 176.667 26.3409 176.475C26.1489 176.275 25.8409 176.175 25.4169 176.175C25.0089 176.175 24.6809 176.255 24.4329 176.415C24.1929 176.575 24.0529 176.803 24.0129 177.099H22.8249C22.8809 176.523 23.1409 176.063 23.6049 175.719C24.0689 175.375 24.6889 175.203 25.4649 175.203C26.2649 175.203 26.8649 175.391 27.2649 175.767C27.6649 176.135 27.8649 176.679 27.8649 177.399V180.267C27.8649 180.451 27.8769 180.639 27.9009 180.831C27.9249 181.023 27.9609 181.227 28.0089 181.443H26.7969ZM24.6849 181.563C24.0609 181.563 23.5649 181.411 23.1969 181.107C22.8289 180.795 22.6449 180.375 22.6449 179.847C22.6449 179.303 22.8369 178.875 23.2209 178.563C23.6129 178.243 24.1729 178.027 24.9009 177.915L26.9169 177.591V178.467L25.0929 178.755C24.6849 178.819 24.3769 178.927 24.1689 179.079C23.9689 179.231 23.8689 179.451 23.8689 179.739C23.8689 180.019 23.9609 180.231 24.1449 180.375C24.3369 180.511 24.6129 180.579 24.9729 180.579C25.4529 180.579 25.8489 180.463 26.1609 180.231C26.4809 179.999 26.6409 179.707 26.6409 179.355L26.7969 180.243C26.6529 180.667 26.3969 180.995 26.0289 181.227C25.6609 181.451 25.2129 181.563 24.6849 181.563ZM31.6934 181.563C30.8934 181.563 30.2574 181.387 29.7854 181.035C29.3134 180.683 29.0454 180.187 28.9814 179.547H30.1334C30.1894 179.899 30.3494 180.171 30.6134 180.363C30.8854 180.547 31.2534 180.639 31.7174 180.639C32.1254 180.639 32.4374 180.567 32.6534 180.423C32.8694 180.279 32.9774 180.075 32.9774 179.811C32.9774 179.619 32.9134 179.459 32.7854 179.331C32.6654 179.195 32.4254 179.083 32.0654 178.995L31.0814 178.767C30.4654 178.615 30.0054 178.391 29.7014 178.095C29.4054 177.791 29.2574 177.419 29.2574 176.979C29.2574 176.427 29.4614 175.995 29.8694 175.683C30.2854 175.363 30.8534 175.203 31.5734 175.203C32.2854 175.203 32.8574 175.363 33.2894 175.683C33.7294 176.003 33.9774 176.451 34.0334 177.027H32.8814C32.8334 176.739 32.6934 176.519 32.4614 176.367C32.2374 176.207 31.9294 176.127 31.5374 176.127C31.1694 176.127 30.8854 176.195 30.6854 176.331C30.4934 176.459 30.3974 176.639 30.3974 176.871C30.3974 177.063 30.4694 177.223 30.6134 177.351C30.7654 177.479 31.0134 177.587 31.3574 177.675L32.3654 177.927C32.9494 178.071 33.3894 178.307 33.6854 178.635C33.9814 178.955 34.1294 179.343 34.1294 179.799C34.1294 180.351 33.9134 180.783 33.4814 181.095C33.0574 181.407 32.4614 181.563 31.6934 181.563ZM31.5494 184.023C31.1094 184.023 30.7534 183.923 30.4814 183.723C30.2174 183.531 30.0774 183.267 30.0614 182.931H30.9014C30.9174 183.067 30.9894 183.167 31.1174 183.231C31.2454 183.295 31.3934 183.327 31.5614 183.327C31.7134 183.327 31.8454 183.295 31.9574 183.231C32.0694 183.175 32.1254 183.091 32.1254 182.979C32.1254 182.851 32.0494 182.743 31.8974 182.655C31.7454 182.575 31.4534 182.527 31.0214 182.511L31.3334 181.299H32.1254L31.9454 181.923C32.3214 182.003 32.5894 182.135 32.7494 182.319C32.9174 182.511 33.0014 182.731 33.0014 182.979C33.0014 183.299 32.8694 183.551 32.6054 183.735C32.3494 183.927 31.9974 184.023 31.5494 184.023ZM35.3096 181.443V175.323H36.5576V181.443H35.3096ZM38.3096 181.443V175.323H39.4976V176.763H39.5576V181.443H38.3096ZM42.6536 181.443V177.507C42.6536 177.083 42.5456 176.767 42.3296 176.559C42.1216 176.351 41.8096 176.247 41.3936 176.247C41.0336 176.247 40.7136 176.327 40.4336 176.487C40.1616 176.647 39.9456 176.867 39.7856 177.147C39.6336 177.427 39.5576 177.759 39.5576 178.143L39.4016 176.679C39.6016 176.223 39.9096 175.863 40.3256 175.599C40.7416 175.335 41.2256 175.203 41.7776 175.203C42.4336 175.203 42.9496 175.387 43.3256 175.755C43.7016 176.123 43.8896 176.611 43.8896 177.219V181.443H42.6536ZM49.3086 181.443C49.2686 181.291 49.2406 181.123 49.2246 180.939C49.2166 180.755 49.2126 180.531 49.2126 180.267H49.1526V177.351C49.1526 176.959 49.0526 176.667 48.8526 176.475C48.6606 176.275 48.3526 176.175 47.9286 176.175C47.5206 176.175 47.1926 176.255 46.9446 176.415C46.7046 176.575 46.5646 176.803 46.5246 177.099H45.3366C45.3926 176.523 45.6526 176.063 46.1166 175.719C46.5806 175.375 47.2006 175.203 47.9766 175.203C48.7766 175.203 49.3766 175.391 49.7766 175.767C50.1766 176.135 50.3766 176.679 50.3766 177.399V180.267C50.3766 180.451 50.3886 180.639 50.4126 180.831C50.4366 181.023 50.4726 181.227 50.5206 181.443H49.3086ZM47.1966 181.563C46.5726 181.563 46.0766 181.411 45.7086 181.107C45.3406 180.795 45.1566 180.375 45.1566 179.847C45.1566 179.303 45.3486 178.875 45.7326 178.563C46.1246 178.243 46.6846 178.027 47.4126 177.915L49.4286 177.591V178.467L47.6046 178.755C47.1966 178.819 46.8886 178.927 46.6806 179.079C46.4806 179.231 46.3806 179.451 46.3806 179.739C46.3806 180.019 46.4726 180.231 46.6566 180.375C46.8486 180.511 47.1246 180.579 47.4846 180.579C47.9646 180.579 48.3606 180.463 48.6726 180.231C48.9926 179.999 49.1526 179.707 49.1526 179.355L49.3086 180.243C49.1646 180.667 48.9086 180.995 48.5406 181.227C48.1726 181.451 47.7246 181.563 47.1966 181.563ZM54.4346 181.443V172.803H55.6826V181.443H54.4346ZM58.7786 181.443V177.507C58.7786 177.083 58.6706 176.767 58.4546 176.559C58.2466 176.351 57.9346 176.247 57.5186 176.247C57.1586 176.247 56.8386 176.327 56.5586 176.487C56.2866 176.647 56.0706 176.867 55.9106 177.147C55.7586 177.427 55.6826 177.759 55.6826 178.143L55.5266 176.679C55.7266 176.223 56.0346 175.863 56.4506 175.599C56.8666 175.335 57.3506 175.203 57.9026 175.203C58.5586 175.203 59.0746 175.387 59.4506 175.755C59.8266 176.123 60.0146 176.611 60.0146 177.219V181.443H58.7786ZM65.4336 181.443C65.3936 181.291 65.3656 181.123 65.3496 180.939C65.3416 180.755 65.3376 180.531 65.3376 180.267H65.2776V177.351C65.2776 176.959 65.1776 176.667 64.9776 176.475C64.7856 176.275 64.4776 176.175 64.0536 176.175C63.6456 176.175 63.3176 176.255 63.0696 176.415C62.8296 176.575 62.6896 176.803 62.6496 177.099H61.4616C61.5176 176.523 61.7776 176.063 62.2416 175.719C62.7056 175.375 63.3256 175.203 64.1016 175.203C64.9016 175.203 65.5016 175.391 65.9016 175.767C66.3016 176.135 66.5016 176.679 66.5016 177.399V180.267C66.5016 180.451 66.5136 180.639 66.5376 180.831C66.5616 181.023 66.5976 181.227 66.6456 181.443H65.4336ZM63.3216 181.563C62.6976 181.563 62.2016 181.411 61.8336 181.107C61.4656 180.795 61.2816 180.375 61.2816 179.847C61.2816 179.303 61.4736 178.875 61.8576 178.563C62.2496 178.243 62.8096 178.027 63.5376 177.915L65.5536 177.591V178.467L63.7296 178.755C63.3216 178.819 63.0136 178.927 62.8056 179.079C62.6056 179.231 62.5056 179.451 62.5056 179.739C62.5056 180.019 62.5976 180.231 62.7816 180.375C62.9736 180.511 63.2496 180.579 63.6096 180.579C64.0896 180.579 64.4856 180.463 64.7976 180.231C65.1176 179.999 65.2776 179.707 65.2776 179.355L65.4336 180.243C65.2896 180.667 65.0336 180.995 64.6656 181.227C64.2976 181.451 63.8496 181.563 63.3216 181.563ZM68.4618 181.443V174.615C68.4618 173.991 68.6378 173.515 68.9898 173.187C69.3418 172.851 69.8698 172.683 70.5738 172.683C70.7338 172.683 70.8658 172.691 70.9698 172.707C71.0738 172.723 71.1658 172.747 71.2458 172.779V173.739C71.1898 173.723 71.1138 173.707 71.0178 173.691C70.9298 173.675 70.8298 173.667 70.7178 173.667C70.3658 173.667 70.1098 173.755 69.9498 173.931C69.7898 174.099 69.7098 174.339 69.7098 174.651V181.443H68.4618ZM67.2858 176.319V175.323H71.1138V176.319H67.2858ZM75.0386 181.563C74.3266 181.563 73.8026 181.399 73.4666 181.071C73.1386 180.735 72.9746 180.243 72.9746 179.595V173.919L74.2106 173.451V179.607C74.2106 179.927 74.2946 180.163 74.4626 180.315C74.6306 180.467 74.9026 180.543 75.2786 180.543C75.4226 180.543 75.5506 180.531 75.6626 180.507C75.7746 180.483 75.8706 180.455 75.9506 180.423V181.431C75.8626 181.471 75.7386 181.503 75.5786 181.527C75.4186 181.551 75.2386 181.563 75.0386 181.563ZM71.7506 176.319V175.323H75.9506V176.319H71.7506ZM80.8907 181.443C80.8507 181.291 80.8227 181.123 80.8067 180.939C80.7987 180.755 80.7947 180.531 80.7947 180.267H80.7347V177.351C80.7347 176.959 80.6347 176.667 80.4347 176.475C80.2427 176.275 79.9347 176.175 79.5107 176.175C79.1027 176.175 78.7747 176.255 78.5267 176.415C78.2867 176.575 78.1467 176.803 78.1067 177.099H76.9187C76.9747 176.523 77.2347 176.063 77.6987 175.719C78.1627 175.375 78.7827 175.203 79.5587 175.203C80.3587 175.203 80.9587 175.391 81.3587 175.767C81.7587 176.135 81.9587 176.679 81.9587 177.399V180.267C81.9587 180.451 81.9707 180.639 81.9947 180.831C82.0187 181.023 82.0547 181.227 82.1027 181.443H80.8907ZM78.7787 181.563C78.1547 181.563 77.6587 181.411 77.2907 181.107C76.9227 180.795 76.7387 180.375 76.7387 179.847C76.7387 179.303 76.9307 178.875 77.3147 178.563C77.7067 178.243 78.2667 178.027 78.9947 177.915L81.0107 177.591V178.467L79.1867 178.755C78.7787 178.819 78.4707 178.927 78.2627 179.079C78.0627 179.231 77.9627 179.451 77.9627 179.739C77.9627 180.019 78.0547 180.231 78.2387 180.375C78.4307 180.511 78.7067 180.579 79.0667 180.579C79.5467 180.579 79.9427 180.463 80.2547 180.231C80.5747 179.999 80.7347 179.707 80.7347 179.355L80.8907 180.243C80.7467 180.667 80.4907 180.995 80.1227 181.227C79.7547 181.451 79.3067 181.563 78.7787 181.563ZM83.6494 181.443V172.803H84.8974V181.443H83.6494ZM86.6494 181.443V175.323H87.8974V181.443H86.6494ZM89.6494 181.443V172.647H90.8974V181.443H89.6494ZM93.6214 181.443L90.6094 178.263L93.5254 175.323H95.0974L91.7854 178.539L91.8454 177.975L95.2174 181.443H93.6214Z" fill="white" fill-opacity="0.8"/>
<g filter="url(#filter1_i_14007_2447)">
<path d="M24 11.9425C24 5.59123 29.1487 0.442505 35.5 0.442505H73.5C79.8513 0.442505 85 5.59123 85 11.9425C85 18.2938 79.8513 23.4425 73.5 23.4425H35.5C29.1487 23.4425 24 18.2938 24 11.9425Z" fill="#6F060B"/>
<path d="M43.0454 14.6065V9.3625H43.8854V14.6065H43.0454ZM40.9934 12.3985V11.5825H45.9254V12.3985H40.9934ZM49.2981 16.5625C48.7221 16.5625 48.2141 16.4585 47.7741 16.2505C47.3421 16.0345 46.9901 15.7225 46.7181 15.3145C46.4541 14.9065 46.2901 14.4145 46.2261 13.8385H47.2581C47.3461 14.4385 47.5661 14.8985 47.9181 15.2185C48.2701 15.5385 48.7341 15.6985 49.3101 15.6985C49.8541 15.6985 50.2821 15.5545 50.5941 15.2665C50.9061 14.9785 51.0621 14.5865 51.0621 14.0905C51.0621 13.5705 50.9101 13.1505 50.6061 12.8305C50.3021 12.5025 49.8941 12.3385 49.3821 12.3385H48.3021V11.4985H49.3461C49.8101 11.4985 50.1781 11.3665 50.4501 11.1025C50.7301 10.8305 50.8701 10.4705 50.8701 10.0225C50.8701 9.5505 50.7221 9.1865 50.4261 8.9305C50.1381 8.6745 49.7461 8.5465 49.2501 8.5465C48.7621 8.5465 48.3461 8.6905 48.0021 8.9785C47.6581 9.2585 47.4541 9.6625 47.3901 10.1905H46.3461C46.3941 9.6785 46.5461 9.2385 46.8021 8.8705C47.0581 8.4945 47.3981 8.2025 47.8221 7.9945C48.2541 7.7865 48.7381 7.6825 49.2741 7.6825C49.7941 7.6825 50.2541 7.7745 50.6541 7.9585C51.0541 8.1425 51.3661 8.4065 51.5901 8.7505C51.8141 9.0865 51.9261 9.4825 51.9261 9.9385C51.9261 10.3465 51.8341 10.7065 51.6501 11.0185C51.4661 11.3305 51.2141 11.5745 50.8941 11.7505C50.5821 11.9265 50.2221 12.0145 49.8141 12.0145L49.7421 11.7625C50.2301 11.7625 50.6501 11.8665 51.0021 12.0745C51.3621 12.2745 51.6381 12.5505 51.8301 12.9025C52.0301 13.2545 52.1301 13.6625 52.1301 14.1265C52.1301 14.6065 52.0101 15.0305 51.7701 15.3985C51.5301 15.7665 51.1981 16.0545 50.7741 16.2625C50.3501 16.4625 49.8581 16.5625 49.2981 16.5625ZM56.1407 16.5625C55.2847 16.5625 54.6007 16.3345 54.0887 15.8785C53.5767 15.4145 53.2647 14.8145 53.1527 14.0785H54.2087C54.3127 14.5985 54.5327 14.9985 54.8687 15.2785C55.2127 15.5585 55.6287 15.6985 56.1167 15.6985C56.6287 15.6985 57.0607 15.5385 57.4127 15.2185C57.7727 14.8985 57.9527 14.3905 57.9527 13.6945C57.9527 12.9985 57.7727 12.4785 57.4127 12.1345C57.0607 11.7825 56.6127 11.6065 56.0687 11.6065C55.6767 11.6065 55.3367 11.6865 55.0487 11.8465C54.7607 12.0065 54.5687 12.1945 54.4727 12.4105H53.5847L53.9807 7.8025H58.5407V8.6665H54.5687L54.9047 8.3065L54.6287 11.7865L54.4007 11.7025C54.5447 11.4625 54.7767 11.2545 55.0967 11.0785C55.4167 10.9025 55.8087 10.8145 56.2727 10.8145C56.8087 10.8145 57.2807 10.9305 57.6887 11.1625C58.1047 11.3945 58.4287 11.7265 58.6607 12.1585C58.9007 12.5825 59.0207 13.0945 59.0207 13.6945C59.0207 14.2945 58.9007 14.8105 58.6607 15.2425C58.4287 15.6665 58.0967 15.9945 57.6647 16.2265C57.2407 16.4505 56.7327 16.5625 56.1407 16.5625ZM60.313 16.4425L66.769 7.8025H67.765L61.309 16.4425H60.313ZM66.337 16.5625C66.001 16.5625 65.685 16.4825 65.389 16.3225C65.093 16.1625 64.853 15.9185 64.669 15.5905C64.485 15.2625 64.393 14.8465 64.393 14.3425C64.393 13.8385 64.481 13.4265 64.657 13.1065C64.841 12.7785 65.081 12.5345 65.377 12.3745C65.673 12.2145 65.993 12.1345 66.337 12.1345C66.697 12.1345 67.025 12.2145 67.321 12.3745C67.625 12.5345 67.865 12.7785 68.041 13.1065C68.217 13.4265 68.305 13.8385 68.305 14.3425C68.305 14.8465 68.213 15.2625 68.029 15.5905C67.845 15.9185 67.601 16.1625 67.297 16.3225C67.001 16.4825 66.681 16.5625 66.337 16.5625ZM66.337 15.9025C66.665 15.9025 66.933 15.7665 67.141 15.4945C67.357 15.2225 67.465 14.8345 67.465 14.3305C67.465 13.8345 67.357 13.4545 67.141 13.1905C66.933 12.9265 66.665 12.7945 66.337 12.7945C66.009 12.7945 65.745 12.9265 65.545 13.1905C65.345 13.4465 65.245 13.8265 65.245 14.3305C65.245 14.8425 65.345 15.2345 65.545 15.5065C65.745 15.7705 66.009 15.9025 66.337 15.9025ZM61.657 12.1105C61.313 12.1105 60.993 12.0305 60.697 11.8705C60.401 11.7105 60.161 11.4665 59.977 11.1385C59.801 10.8105 59.713 10.3945 59.713 9.8905C59.713 9.3865 59.801 8.9745 59.977 8.6545C60.161 8.3265 60.401 8.0825 60.697 7.9225C60.993 7.7625 61.313 7.6825 61.657 7.6825C62.017 7.6825 62.345 7.7625 62.641 7.9225C62.937 8.0825 63.173 8.3265 63.349 8.6545C63.525 8.9745 63.613 9.3865 63.613 9.8905C63.613 10.3945 63.521 10.8105 63.337 11.1385C63.153 11.4665 62.913 11.7105 62.617 11.8705C62.321 12.0305 62.001 12.1105 61.657 12.1105ZM61.657 11.4505C61.977 11.4505 62.241 11.3185 62.449 11.0545C62.665 10.7825 62.773 10.3905 62.773 9.8785C62.773 9.3825 62.669 9.0025 62.461 8.7385C62.253 8.4745 61.985 8.3425 61.657 8.3425C61.329 8.3425 61.061 8.4745 60.853 8.7385C60.653 8.9945 60.553 9.3745 60.553 9.8785C60.553 10.3905 60.653 10.7825 60.853 11.0545C61.061 11.3185 61.329 11.4505 61.657 11.4505Z" fill="white"/>
</g>
</g>
<defs>
<filter id="filter0_i_14007_2447" x="0" y="0.442505" width="114" height="200" filterUnits="userSpaceOnUse" color-interpolation-filters="sRGB">
<feFlood flood-opacity="0" result="BackgroundImageFix"/>
<feBlend mode="normal" in="SourceGraphic" in2="BackgroundImageFix" result="shape"/>
<feColorMatrix in="SourceAlpha" type="matrix" values="0 0 0 0 0 0 0 0 0 0 0 0 0 0 0 0 0 0 127 0" result="hardAlpha"/>
<feOffset dx="4" dy="4"/>
<feGaussianBlur stdDeviation="7.5"/>
<feComposite in2="hardAlpha" operator="arithmetic" k2="-1" k3="1"/>
<feColorMatrix type="matrix" values="0 0 0 0 1 0 0 0 0 1 0 0 0 0 1 0 0 0 0.3 0"/>
<feBlend mode="normal" in2="shape" result="effect1_innerShadow_14007_2447"/>
</filter>
<filter id="filter1_i_14007_2447" x="24" y="0.442505" width="61" height="23" filterUnits="userSpaceOnUse" color-interpolation-filters="sRGB">
<feFlood flood-opacity="0" result="BackgroundImageFix"/>
<feBlend mode="normal" in="SourceGraphic" in2="BackgroundImageFix" result="shape"/>
<feColorMatrix in="SourceAlpha" type="matrix" values="0 0 0 0 0 0 0 0 0 0 0 0 0 0 0 0 0 0 127 0" result="hardAlpha"/>
<feOffset/>
<feGaussianBlur stdDeviation="4.16399"/>
<feComposite in2="hardAlpha" operator="arithmetic" k2="-1" k3="1"/>
<feColorMatrix type="matrix" values="0 0 0 0 1 0 0 0 0 1 0 0 0 0 1 0 0 0 1 0"/>
<feBlend mode="normal" in2="shape" result="effect1_innerShadow_14007_2447"/>
</filter>
<radialGradient id="paint0_radial_14007_2447" cx="0" cy="0" r="1" gradientTransform="matrix(66.0598 141.543 -159.019 71.4186 29.0845 38.7527)" gradientUnits="userSpaceOnUse">
<stop stop-color="#6F060B"/>
<stop offset="1" stop-color="#E50914"/>
</radialGradient>
</defs>
</svg>
