<svg width="110" height="197" viewBox="0 0 110 197" fill="none" xmlns="http://www.w3.org/2000/svg">
<g filter="url(#filter0_i_14007_2446)">
<path d="M0 26.4425C0 17.6059 7.16344 10.4425 16 10.4425H94C102.837 10.4425 110 17.6059 110 26.4425V180.443C110 189.279 102.837 196.443 94 196.443H16C7.16344 196.443 0 189.279 0 180.443V26.4425Z" fill="url(#paint0_radial_14007_2446)"/>
<path d="M16 10.9425H94C102.56 10.9425 109.5 17.8821 109.5 26.4425V180.443C109.5 189.003 102.56 195.943 94 195.943H16C7.43959 195.943 0.5 189.003 0.5 180.443V26.4425C0.5 17.8821 7.43959 10.9425 16 10.9425Z" stroke="white" stroke-opacity="0.4"/>
<path d="M33.2944 58.4425V57.0505C34.4144 56.1332 35.3477 55.3332 36.0944 54.6505C36.8517 53.9678 37.4544 53.3598 37.9024 52.8265C38.3504 52.2932 38.6704 51.8078 38.8624 51.3705C39.0544 50.9332 39.1504 50.4958 39.1504 50.0585C39.1504 49.4612 38.9744 48.9972 38.6224 48.6665C38.281 48.3252 37.8064 48.1545 37.1984 48.1545C36.569 48.1545 36.057 48.3412 35.6624 48.7145C35.2677 49.0772 35.0224 49.5945 34.9264 50.2665H33.1984C33.305 49.2105 33.7157 48.3625 34.4304 47.7225C35.1557 47.0825 36.1104 46.7625 37.2944 46.7625C38.425 46.7625 39.3157 47.0612 39.9664 47.6585C40.6277 48.2558 40.9584 49.0772 40.9584 50.1225C40.9584 50.6558 40.857 51.1892 40.6544 51.7225C40.4624 52.2452 40.1424 52.7945 39.6944 53.3705C39.2464 53.9358 38.6437 54.5652 37.8864 55.2585C37.1397 55.9412 36.2117 56.7198 35.1024 57.5945L34.7024 57.0505H41.1664V58.4425H33.2944ZM42.4798 58.4425V56.4585H44.4478V58.4425H42.4798ZM50.001 58.6025C49.073 58.6025 48.257 58.3518 47.553 57.8505C46.849 57.3385 46.2997 56.6345 45.905 55.7385C45.5103 54.8318 45.313 53.7972 45.313 52.6345C45.313 51.4718 45.5103 50.4532 45.905 49.5785C46.2997 48.6932 46.849 48.0052 47.553 47.5145C48.257 47.0132 49.073 46.7625 50.001 46.7625C50.929 46.7625 51.7397 47.0132 52.433 47.5145C53.137 48.0052 53.6863 48.6932 54.081 49.5785C54.4757 50.4532 54.673 51.4718 54.673 52.6345C54.673 53.8078 54.4757 54.8425 54.081 55.7385C53.6863 56.6345 53.137 57.3385 52.433 57.8505C51.729 58.3518 50.9183 58.6025 50.001 58.6025ZM50.001 57.1465C50.609 57.1465 51.1263 56.9598 51.553 56.5865C51.9797 56.2025 52.2997 55.6745 52.513 55.0025C52.737 54.3198 52.849 53.5252 52.849 52.6185C52.849 51.7225 52.737 50.9438 52.513 50.2825C52.2997 49.6212 51.9797 49.1145 51.553 48.7625C51.137 48.3998 50.6197 48.2185 50.001 48.2185C49.3717 48.2185 48.8437 48.3998 48.417 48.7625C48.001 49.1252 47.681 49.6372 47.457 50.2985C47.2437 50.9492 47.137 51.7225 47.137 52.6185C47.137 53.5252 47.249 54.3198 47.473 55.0025C47.697 55.6852 48.017 56.2132 48.433 56.5865C48.8597 56.9598 49.3823 57.1465 50.001 57.1465ZM60.9541 58.6025C60.0261 58.6025 59.2101 58.3518 58.5061 57.8505C57.8021 57.3385 57.2528 56.6345 56.8581 55.7385C56.4635 54.8318 56.2661 53.7972 56.2661 52.6345C56.2661 51.4718 56.4635 50.4532 56.8581 49.5785C57.2528 48.6932 57.8021 48.0052 58.5061 47.5145C59.2101 47.0132 60.0261 46.7625 60.9541 46.7625C61.8821 46.7625 62.6928 47.0132 63.3861 47.5145C64.0901 48.0052 64.6395 48.6932 65.0341 49.5785C65.4288 50.4532 65.6261 51.4718 65.6261 52.6345C65.6261 53.8078 65.4288 54.8425 65.0341 55.7385C64.6395 56.6345 64.0901 57.3385 63.3861 57.8505C62.6821 58.3518 61.8715 58.6025 60.9541 58.6025ZM60.9541 57.1465C61.5621 57.1465 62.0795 56.9598 62.5061 56.5865C62.9328 56.2025 63.2528 55.6745 63.4661 55.0025C63.6901 54.3198 63.8021 53.5252 63.8021 52.6185C63.8021 51.7225 63.6901 50.9438 63.4661 50.2825C63.2528 49.6212 62.9328 49.1145 62.5061 48.7625C62.0901 48.3998 61.5728 48.2185 60.9541 48.2185C60.3248 48.2185 59.7968 48.3998 59.3701 48.7625C58.9541 49.1252 58.6341 49.6372 58.4101 50.2985C58.1968 50.9492 58.0901 51.7225 58.0901 52.6185C58.0901 53.5252 58.2021 54.3198 58.4261 55.0025C58.6501 55.6852 58.9701 56.2132 59.3861 56.5865C59.8128 56.9598 60.3355 57.1465 60.9541 57.1465ZM71.9073 58.6025C70.9793 58.6025 70.1633 58.3518 69.4593 57.8505C68.7553 57.3385 68.2059 56.6345 67.8113 55.7385C67.4166 54.8318 67.2193 53.7972 67.2193 52.6345C67.2193 51.4718 67.4166 50.4532 67.8113 49.5785C68.2059 48.6932 68.7553 48.0052 69.4593 47.5145C70.1633 47.0132 70.9793 46.7625 71.9073 46.7625C72.8353 46.7625 73.6459 47.0132 74.3393 47.5145C75.0433 48.0052 75.5926 48.6932 75.9873 49.5785C76.3819 50.4532 76.5793 51.4718 76.5793 52.6345C76.5793 53.8078 76.3819 54.8425 75.9873 55.7385C75.5926 56.6345 75.0433 57.3385 74.3393 57.8505C73.6353 58.3518 72.8246 58.6025 71.9073 58.6025ZM71.9073 57.1465C72.5153 57.1465 73.0326 56.9598 73.4593 56.5865C73.8859 56.2025 74.2059 55.6745 74.4193 55.0025C74.6433 54.3198 74.7552 53.5252 74.7552 52.6185C74.7552 51.7225 74.6433 50.9438 74.4193 50.2825C74.2059 49.6212 73.8859 49.1145 73.4593 48.7625C73.0433 48.3998 72.5259 48.2185 71.9073 48.2185C71.2779 48.2185 70.7499 48.3998 70.3233 48.7625C69.9073 49.1252 69.5873 49.6372 69.3633 50.2985C69.1499 50.9492 69.0433 51.7225 69.0433 52.6185C69.0433 53.5252 69.1553 54.3198 69.3793 55.0025C69.6033 55.6852 69.9233 56.2132 70.3393 56.5865C70.7659 56.9598 71.2886 57.1465 71.9073 57.1465Z" fill="white" fill-opacity="0.9"/>
<path d="M32.7344 53.6265H77.2673V54.2345H32.7344V53.6265Z" fill="white" fill-opacity="0.9"/>
<path d="M24.3954 93.7625C22.774 93.7625 21.3127 93.4745 20.0114 92.8985C18.7314 92.3012 17.686 91.4372 16.8754 90.3065C16.086 89.1545 15.6274 87.7572 15.4994 86.1145H20.3954C20.566 87.4372 20.9714 88.4185 21.6114 89.0585C22.2514 89.6772 23.1154 89.9865 24.2034 89.9865C25.142 89.9865 25.9207 89.7092 26.5394 89.1545C27.1794 88.5998 27.4994 87.7892 27.4994 86.7225C27.4994 85.6985 27.19 84.8772 26.5714 84.2585C25.974 83.6185 24.95 83.2985 23.4994 83.2985H21.4514V79.5865H23.4034C24.662 79.5865 25.5687 79.3092 26.1234 78.7545C26.678 78.1998 26.9554 77.4958 26.9554 76.6425C26.9554 75.8318 26.742 75.1705 26.3154 74.6585C25.8887 74.1252 25.1634 73.8585 24.1394 73.8585C23.2647 73.8585 22.5074 74.1252 21.8674 74.6585C21.2274 75.1918 20.8327 76.0025 20.6834 77.0905H15.7554C15.9474 75.6398 16.406 74.3918 17.1314 73.3465C17.8567 72.3012 18.8274 71.5012 20.0434 70.9465C21.2594 70.3705 22.678 70.0825 24.2994 70.0825C25.9207 70.0825 27.3074 70.3385 28.4594 70.8505C29.6327 71.3412 30.5394 72.0452 31.1794 72.9625C31.8194 73.8798 32.1394 74.9785 32.1394 76.2585C32.1394 77.3252 31.894 78.2638 31.4034 79.0745C30.9127 79.8852 30.294 80.5145 29.5474 80.9625C28.822 81.4105 28.086 81.6345 27.3394 81.6345L27.3074 80.9625C28.438 80.9625 29.4087 81.2398 30.2194 81.7945C31.03 82.3278 31.6487 83.0532 32.0754 83.9705C32.502 84.8665 32.7154 85.8692 32.7154 86.9785C32.7154 88.3652 32.3527 89.5705 31.6274 90.5945C30.902 91.6185 29.91 92.4078 28.6514 92.9625C27.3927 93.4958 25.974 93.7625 24.3954 93.7625ZM34.4356 93.4425V88.1625H39.7156V93.4425H34.4356ZM50.1454 93.7625C48.524 93.7625 47.0627 93.4745 45.7614 92.8985C44.4814 92.3012 43.436 91.4372 42.6254 90.3065C41.836 89.1545 41.3774 87.7572 41.2494 86.1145H46.1454C46.316 87.4372 46.7214 88.4185 47.3614 89.0585C48.0014 89.6772 48.8654 89.9865 49.9534 89.9865C50.892 89.9865 51.6707 89.7092 52.2894 89.1545C52.9294 88.5998 53.2494 87.7892 53.2494 86.7225C53.2494 85.6985 52.94 84.8772 52.3214 84.2585C51.724 83.6185 50.7 83.2985 49.2494 83.2985H47.2014V79.5865H49.1534C50.412 79.5865 51.3187 79.3092 51.8734 78.7545C52.428 78.1998 52.7054 77.4958 52.7054 76.6425C52.7054 75.8318 52.492 75.1705 52.0654 74.6585C51.6387 74.1252 50.9134 73.8585 49.8894 73.8585C49.0147 73.8585 48.2574 74.1252 47.6174 74.6585C46.9774 75.1918 46.5827 76.0025 46.4334 77.0905H41.5054C41.6974 75.6398 42.156 74.3918 42.8814 73.3465C43.6067 72.3012 44.5774 71.5012 45.7934 70.9465C47.0094 70.3705 48.428 70.0825 50.0494 70.0825C51.6707 70.0825 53.0574 70.3385 54.2094 70.8505C55.3827 71.3412 56.2894 72.0452 56.9294 72.9625C57.5694 73.8798 57.8894 74.9785 57.8894 76.2585C57.8894 77.3252 57.644 78.2638 57.1534 79.0745C56.6627 79.8852 56.044 80.5145 55.2974 80.9625C54.572 81.4105 53.836 81.6345 53.0894 81.6345L53.0574 80.9625C54.188 80.9625 55.1587 81.2398 55.9694 81.7945C56.78 82.3278 57.3987 83.0532 57.8254 83.9705C58.252 84.8665 58.4654 85.8692 58.4654 86.9785C58.4654 88.3652 58.1027 89.5705 57.3774 90.5945C56.652 91.6185 55.66 92.4078 54.4014 92.9625C53.1427 93.4958 51.724 93.7625 50.1454 93.7625ZM63.5336 93.4425C63.8536 89.7945 64.7496 86.2852 66.2216 82.9145C67.715 79.5225 69.603 76.4078 71.8856 73.5705V74.1785H59.5336V70.4025H76.5256V73.9225C75.075 75.9918 73.8056 78.0718 72.7176 80.1625C71.6296 82.2532 70.755 84.3972 70.0936 86.5945C69.4323 88.7705 69.0056 91.0532 68.8136 93.4425H63.5336ZM85.8299 93.7625C83.4619 93.7625 81.5205 93.1545 80.0059 91.9385C78.4912 90.7225 77.5525 89.0158 77.1899 86.8185H82.0859C82.2565 87.7998 82.6832 88.5785 83.3659 89.1545C84.0485 89.7092 84.8272 89.9865 85.7019 89.9865C86.7045 89.9865 87.5045 89.6452 88.1019 88.9625C88.7205 88.2585 89.0299 87.2025 89.0299 85.7945C89.0299 84.4505 88.7419 83.4265 88.1659 82.7225C87.5899 81.9972 86.8005 81.6345 85.7979 81.6345C85.2219 81.6345 84.6779 81.7732 84.1659 82.0505C83.6539 82.3065 83.2272 82.7332 82.8859 83.3305H78.4059L79.5899 70.4025H92.8379V74.1785H81.3179L83.9419 73.8265L83.3659 81.0265L81.7659 80.8025C82.3205 79.9278 82.9925 79.2665 83.7819 78.8185C84.5925 78.3492 85.6165 78.1145 86.8539 78.1145C88.3259 78.1145 89.6165 78.4345 90.7259 79.0745C91.8352 79.7145 92.6992 80.6105 93.3179 81.7625C93.9365 82.9145 94.2459 84.2798 94.2459 85.8585C94.2459 87.5225 93.8939 88.9412 93.1899 90.1145C92.4859 91.2878 91.5045 92.1945 90.2459 92.8345C88.9872 93.4532 87.5152 93.7625 85.8299 93.7625Z" fill="white"/>
<path d="M38.474 115.583C38.1193 115.583 37.7787 115.555 37.452 115.499C37.1253 115.452 36.8873 115.391 36.738 115.317V114.057C36.9433 114.141 37.1907 114.211 37.48 114.267C37.7693 114.323 38.0633 114.351 38.362 114.351C38.978 114.351 39.44 114.225 39.748 113.973C40.0653 113.711 40.224 113.301 40.224 112.741V105.363H41.708V112.797C41.708 113.73 41.4327 114.43 40.882 114.897C40.3313 115.354 39.5287 115.583 38.474 115.583ZM46.7543 115.583C46.0357 115.583 45.401 115.424 44.8503 115.107C44.309 114.789 43.8843 114.351 43.5763 113.791C43.2683 113.231 43.1143 112.587 43.1143 111.859C43.1143 111.121 43.2637 110.477 43.5623 109.927C43.8703 109.367 44.2997 108.933 44.8503 108.625C45.401 108.317 46.031 108.163 46.7403 108.163C47.431 108.163 48.0283 108.312 48.5323 108.611C49.0457 108.9 49.4377 109.306 49.7083 109.829C49.9883 110.351 50.1283 110.972 50.1283 111.691C50.1283 111.803 50.1237 111.91 50.1143 112.013C50.1143 112.106 50.105 112.204 50.0863 112.307H44.0943V111.215H49.0643L48.7003 111.649C48.7003 110.883 48.5277 110.3 48.1823 109.899C47.837 109.497 47.3563 109.297 46.7403 109.297C46.0777 109.297 45.5503 109.525 45.1583 109.983C44.7757 110.431 44.5843 111.056 44.5843 111.859C44.5843 112.671 44.7757 113.305 45.1583 113.763C45.5503 114.22 46.0917 114.449 46.7823 114.449C47.2023 114.449 47.5663 114.365 47.8743 114.197C48.1823 114.019 48.411 113.763 48.5603 113.427H49.9323C49.699 114.099 49.3023 114.626 48.7423 115.009C48.1917 115.391 47.529 115.583 46.7543 115.583ZM54.5327 115.583C53.702 115.583 53.0907 115.391 52.6987 115.009C52.316 114.617 52.1247 114.043 52.1247 113.287V106.665L53.5667 106.119V113.301C53.5667 113.674 53.6647 113.949 53.8607 114.127C54.0567 114.304 54.374 114.393 54.8127 114.393C54.9807 114.393 55.13 114.379 55.2607 114.351C55.3913 114.323 55.5033 114.29 55.5967 114.253V115.429C55.494 115.475 55.3493 115.513 55.1627 115.541C54.976 115.569 54.766 115.583 54.5327 115.583ZM50.6967 109.465V108.303H55.5967V109.465H50.6967ZM59.8937 115.583C59.1657 115.583 58.5263 115.424 57.9757 115.107C57.425 114.78 56.9957 114.337 56.6877 113.777C56.3797 113.207 56.2257 112.563 56.2257 111.845C56.2257 111.117 56.3797 110.477 56.6877 109.927C57.005 109.376 57.4343 108.947 57.9757 108.639C58.5263 108.321 59.1657 108.163 59.8937 108.163C60.631 108.163 61.275 108.321 61.8257 108.639C62.3763 108.947 62.801 109.376 63.0997 109.927C63.4077 110.477 63.5617 111.117 63.5617 111.845C63.5617 112.563 63.4077 113.207 63.0997 113.777C62.801 114.337 62.3763 114.78 61.8257 115.107C61.275 115.424 60.631 115.583 59.8937 115.583ZM59.8937 114.393C60.3323 114.393 60.7103 114.285 61.0277 114.071C61.3543 113.856 61.611 113.557 61.7977 113.175C61.9843 112.792 62.0777 112.344 62.0777 111.831C62.0777 111.065 61.8723 110.463 61.4617 110.025C61.0603 109.577 60.5377 109.353 59.8937 109.353C59.259 109.353 58.7363 109.577 58.3257 110.025C57.9243 110.473 57.7237 111.075 57.7237 111.831C57.7237 112.344 57.8123 112.792 57.9897 113.175C58.1763 113.557 58.433 113.856 58.7597 114.071C59.0957 114.285 59.4737 114.393 59.8937 114.393ZM65.0572 115.443V108.303H66.4432V109.983H66.5132V115.443H65.0572ZM70.1252 115.443V110.851C70.1252 110.356 69.9992 109.987 69.7472 109.745C69.5045 109.502 69.1405 109.381 68.6552 109.381C68.2352 109.381 67.8618 109.474 67.5352 109.661C67.2178 109.847 66.9658 110.104 66.7792 110.431C66.6018 110.757 66.5132 111.145 66.5132 111.593L66.3312 109.885C66.5645 109.353 66.9238 108.933 67.4092 108.625C67.8945 108.317 68.4592 108.163 69.1032 108.163C69.8685 108.163 70.4705 108.377 70.9092 108.807C71.3478 109.236 71.5672 109.805 71.5672 110.515V115.443H70.1252Z" fill="white"/>
<line x1="14.5" y1="133.943" x2="95.5" y2="133.943" stroke="white" stroke-opacity="0.1"/>
<path d="M27.3536 164.603C27.1296 164.603 26.8843 164.587 26.6176 164.555C26.351 164.533 26.111 164.496 25.8976 164.443V159.547L24.3456 160.075V158.683L25.8976 158.155V157.163L24.3456 157.691V156.299L25.8976 155.771V153.019H28.2336V154.971L30.7296 154.107V155.499L28.2336 156.363V157.355L30.7296 156.491V157.867L28.2336 158.731V162.651C28.9056 162.533 29.4283 162.309 29.8016 161.979C30.1856 161.648 30.4523 161.216 30.6016 160.683C30.7616 160.149 30.8416 159.536 30.8416 158.843H33.0336C33.0336 159.579 32.9376 160.293 32.7456 160.987C32.5536 161.669 32.239 162.283 31.8016 162.827C31.375 163.371 30.7936 163.803 30.0576 164.123C29.3323 164.443 28.431 164.603 27.3536 164.603ZM35.8059 164.443C35.9659 162.619 36.4139 160.864 37.1499 159.179C37.8965 157.483 38.8405 155.925 39.9819 154.507V154.811H33.8059V152.923H42.3019V154.683C41.5765 155.717 40.9419 156.757 40.3979 157.803C39.8539 158.848 39.4165 159.92 39.0859 161.019C38.7552 162.107 38.5419 163.248 38.4459 164.443H35.8059ZM47.2189 164.603C46.3869 164.603 45.6775 164.453 45.0909 164.155C44.5149 163.845 44.0615 163.424 43.7309 162.891C43.4002 162.347 43.1922 161.723 43.1069 161.019H45.5549C45.6082 161.584 45.7789 162.011 46.0669 162.299C46.3549 162.576 46.7655 162.715 47.2989 162.715C47.6829 162.715 48.0029 162.64 48.2589 162.491C48.5255 162.331 48.7335 162.091 48.8829 161.771C49.0429 161.44 49.1549 161.013 49.2189 160.491C49.2935 159.968 49.3309 159.333 49.3309 158.587V157.547L49.9869 157.563C49.8695 158.075 49.6615 158.517 49.3629 158.891C49.0642 159.264 48.6855 159.552 48.2269 159.755C47.7789 159.957 47.2615 160.059 46.6749 160.059C45.9389 160.059 45.2882 159.909 44.7229 159.611C44.1682 159.301 43.7309 158.88 43.4109 158.347C43.0909 157.803 42.9309 157.179 42.9309 156.475C42.9309 155.728 43.1122 155.077 43.4749 154.523C43.8375 153.968 44.3442 153.536 44.9949 153.227C45.6455 152.917 46.4029 152.763 47.2669 152.763C48.8029 152.763 49.9815 153.259 50.8029 154.251C51.6349 155.232 52.0509 156.656 52.0509 158.523C52.0509 159.781 51.8589 160.869 51.4749 161.787C51.1015 162.693 50.5522 163.392 49.8269 163.883C49.1122 164.363 48.2429 164.603 47.2189 164.603ZM47.4909 158.203C48.0882 158.203 48.5362 158.043 48.8349 157.723C49.1335 157.403 49.2829 156.997 49.2829 156.507C49.2829 156.165 49.2135 155.856 49.0749 155.579C48.9469 155.291 48.7495 155.067 48.4829 154.907C48.2162 154.736 47.8855 154.651 47.4909 154.651C46.9042 154.651 46.4509 154.827 46.1309 155.179C45.8109 155.52 45.6509 155.941 45.6509 156.443C45.6509 156.944 45.8109 157.365 46.1309 157.707C46.4509 158.037 46.9042 158.203 47.4909 158.203ZM57.2814 164.603C56.4494 164.603 55.74 164.453 55.1534 164.155C54.5774 163.845 54.124 163.424 53.7934 162.891C53.4627 162.347 53.2547 161.723 53.1694 161.019H55.6174C55.6707 161.584 55.8414 162.011 56.1294 162.299C56.4174 162.576 56.828 162.715 57.3614 162.715C57.7454 162.715 58.0654 162.64 58.3214 162.491C58.588 162.331 58.796 162.091 58.9454 161.771C59.1054 161.44 59.2174 161.013 59.2814 160.491C59.356 159.968 59.3934 159.333 59.3934 158.587V157.547L60.0494 157.563C59.932 158.075 59.724 158.517 59.4254 158.891C59.1267 159.264 58.748 159.552 58.2894 159.755C57.8414 159.957 57.324 160.059 56.7374 160.059C56.0014 160.059 55.3507 159.909 54.7854 159.611C54.2307 159.301 53.7934 158.88 53.4734 158.347C53.1534 157.803 52.9934 157.179 52.9934 156.475C52.9934 155.728 53.1747 155.077 53.5374 154.523C53.9 153.968 54.4067 153.536 55.0574 153.227C55.708 152.917 56.4654 152.763 57.3294 152.763C58.8654 152.763 60.044 153.259 60.8654 154.251C61.6974 155.232 62.1134 156.656 62.1134 158.523C62.1134 159.781 61.9214 160.869 61.5374 161.787C61.164 162.693 60.6147 163.392 59.8894 163.883C59.1747 164.363 58.3054 164.603 57.2814 164.603ZM57.5534 158.203C58.1507 158.203 58.5987 158.043 58.8974 157.723C59.196 157.403 59.3454 156.997 59.3454 156.507C59.3454 156.165 59.276 155.856 59.1374 155.579C59.0094 155.291 58.812 155.067 58.5454 154.907C58.2787 154.736 57.948 154.651 57.5534 154.651C56.9667 154.651 56.5134 154.827 56.1934 155.179C55.8734 155.52 55.7134 155.941 55.7134 156.443C55.7134 156.944 55.8734 157.365 56.1934 157.707C56.5134 158.037 56.9667 158.203 57.5534 158.203ZM62.7576 167.131V165.963C63.259 165.813 63.5843 165.595 63.7336 165.307C63.883 165.019 63.9576 164.645 63.9576 164.187L64.9336 164.443H62.7256V161.803H65.3656V163.675C65.3656 164.517 65.1683 165.243 64.7736 165.851C64.379 166.459 63.707 166.885 62.7576 167.131ZM70.3595 164.603C69.5275 164.603 68.8182 164.453 68.2315 164.155C67.6555 163.845 67.2022 163.424 66.8715 162.891C66.5408 162.347 66.3328 161.723 66.2475 161.019H68.6955C68.7488 161.584 68.9195 162.011 69.2075 162.299C69.4955 162.576 69.9062 162.715 70.4395 162.715C70.8235 162.715 71.1435 162.64 71.3995 162.491C71.6662 162.331 71.8742 162.091 72.0235 161.771C72.1835 161.44 72.2955 161.013 72.3595 160.491C72.4342 159.968 72.4715 159.333 72.4715 158.587V157.547L73.1275 157.563C73.0102 158.075 72.8022 158.517 72.5035 158.891C72.2048 159.264 71.8262 159.552 71.3675 159.755C70.9195 159.957 70.4022 160.059 69.8155 160.059C69.0795 160.059 68.4288 159.909 67.8635 159.611C67.3088 159.301 66.8715 158.88 66.5515 158.347C66.2315 157.803 66.0715 157.179 66.0715 156.475C66.0715 155.728 66.2528 155.077 66.6155 154.523C66.9782 153.968 67.4848 153.536 68.1355 153.227C68.7862 152.917 69.5435 152.763 70.4075 152.763C71.9435 152.763 73.1222 153.259 73.9435 154.251C74.7755 155.232 75.1915 156.656 75.1915 158.523C75.1915 159.781 74.9995 160.869 74.6155 161.787C74.2422 162.693 73.6928 163.392 72.9675 163.883C72.2528 164.363 71.3835 164.603 70.3595 164.603ZM70.6315 158.203C71.2288 158.203 71.6768 158.043 71.9755 157.723C72.2742 157.403 72.4235 156.997 72.4235 156.507C72.4235 156.165 72.3542 155.856 72.2155 155.579C72.0875 155.291 71.8902 155.067 71.6235 154.907C71.3568 154.736 71.0262 154.651 70.6315 154.651C70.0448 154.651 69.5915 154.827 69.2715 155.179C68.9515 155.52 68.7915 155.941 68.7915 156.443C68.7915 156.944 68.9515 157.365 69.2715 157.707C69.5915 158.037 70.0448 158.203 70.6315 158.203ZM80.422 164.603C79.59 164.603 78.8807 164.453 78.294 164.155C77.718 163.845 77.2647 163.424 76.934 162.891C76.6033 162.347 76.3953 161.723 76.31 161.019H78.758C78.8113 161.584 78.982 162.011 79.27 162.299C79.558 162.576 79.9687 162.715 80.502 162.715C80.886 162.715 81.206 162.64 81.462 162.491C81.7287 162.331 81.9367 162.091 82.086 161.771C82.246 161.44 82.358 161.013 82.422 160.491C82.4967 159.968 82.534 159.333 82.534 158.587V157.547L83.19 157.563C83.0727 158.075 82.8647 158.517 82.566 158.891C82.2673 159.264 81.8887 159.552 81.43 159.755C80.982 159.957 80.4647 160.059 79.878 160.059C79.142 160.059 78.4913 159.909 77.926 159.611C77.3713 159.301 76.934 158.88 76.614 158.347C76.294 157.803 76.134 157.179 76.134 156.475C76.134 155.728 76.3153 155.077 76.678 154.523C77.0407 153.968 77.5473 153.536 78.198 153.227C78.8487 152.917 79.606 152.763 80.47 152.763C82.006 152.763 83.1847 153.259 84.006 154.251C84.838 155.232 85.254 156.656 85.254 158.523C85.254 159.781 85.062 160.869 84.678 161.787C84.3047 162.693 83.7553 163.392 83.03 163.883C82.3153 164.363 81.446 164.603 80.422 164.603ZM80.694 158.203C81.2913 158.203 81.7393 158.043 82.038 157.723C82.3367 157.403 82.486 156.997 82.486 156.507C82.486 156.165 82.4167 155.856 82.278 155.579C82.15 155.291 81.9527 155.067 81.686 154.907C81.4193 154.736 81.0887 154.651 80.694 154.651C80.1073 154.651 79.654 154.827 79.334 155.179C79.014 155.52 78.854 155.941 78.854 156.443C78.854 156.944 79.014 157.365 79.334 157.707C79.654 158.037 80.1073 158.203 80.694 158.203Z" fill="white"/>
<path d="M16.324 181.443V180.459H18.904C19.392 180.459 19.772 180.327 20.044 180.063C20.324 179.799 20.464 179.439 20.464 178.983C20.464 178.503 20.316 178.119 20.02 177.831C19.732 177.543 19.336 177.399 18.832 177.399H16.324V176.439H18.712C19.2 176.439 19.576 176.323 19.84 176.091C20.112 175.851 20.248 175.511 20.248 175.071C20.248 174.655 20.12 174.339 19.864 174.123C19.616 173.899 19.248 173.787 18.76 173.787H16.324V172.803H18.952C19.736 172.803 20.36 172.995 20.824 173.379C21.288 173.755 21.52 174.271 21.52 174.927C21.52 175.343 21.424 175.711 21.232 176.031C21.048 176.343 20.792 176.587 20.464 176.763C20.136 176.931 19.764 177.015 19.348 177.015L19.408 176.763C19.856 176.763 20.256 176.867 20.608 177.075C20.96 177.275 21.24 177.551 21.448 177.903C21.656 178.255 21.76 178.663 21.76 179.127C21.76 179.583 21.648 179.987 21.424 180.339C21.208 180.691 20.9 180.963 20.5 181.155C20.1 181.347 19.636 181.443 19.108 181.443H16.324ZM15.388 181.443V172.803H16.66V181.443H15.388ZM26.7969 181.443C26.7569 181.291 26.7289 181.123 26.7129 180.939C26.7049 180.755 26.7009 180.531 26.7009 180.267H26.6409V177.351C26.6409 176.959 26.5409 176.667 26.3409 176.475C26.1489 176.275 25.8409 176.175 25.4169 176.175C25.0089 176.175 24.6809 176.255 24.4329 176.415C24.1929 176.575 24.0529 176.803 24.0129 177.099H22.8249C22.8809 176.523 23.1409 176.063 23.6049 175.719C24.0689 175.375 24.6889 175.203 25.4649 175.203C26.2649 175.203 26.8649 175.391 27.2649 175.767C27.6649 176.135 27.8649 176.679 27.8649 177.399V180.267C27.8649 180.451 27.8769 180.639 27.9009 180.831C27.9249 181.023 27.9609 181.227 28.0089 181.443H26.7969ZM24.6849 181.563C24.0609 181.563 23.5649 181.411 23.1969 181.107C22.8289 180.795 22.6449 180.375 22.6449 179.847C22.6449 179.303 22.8369 178.875 23.2209 178.563C23.6129 178.243 24.1729 178.027 24.9009 177.915L26.9169 177.591V178.467L25.0929 178.755C24.6849 178.819 24.3769 178.927 24.1689 179.079C23.9689 179.231 23.8689 179.451 23.8689 179.739C23.8689 180.019 23.9609 180.231 24.1449 180.375C24.3369 180.511 24.6129 180.579 24.9729 180.579C25.4529 180.579 25.8489 180.463 26.1609 180.231C26.4809 179.999 26.6409 179.707 26.6409 179.355L26.7969 180.243C26.6529 180.667 26.3969 180.995 26.0289 181.227C25.6609 181.451 25.2129 181.563 24.6849 181.563ZM31.6934 181.563C30.8934 181.563 30.2574 181.387 29.7854 181.035C29.3134 180.683 29.0454 180.187 28.9814 179.547H30.1334C30.1894 179.899 30.3494 180.171 30.6134 180.363C30.8854 180.547 31.2534 180.639 31.7174 180.639C32.1254 180.639 32.4374 180.567 32.6534 180.423C32.8694 180.279 32.9774 180.075 32.9774 179.811C32.9774 179.619 32.9134 179.459 32.7854 179.331C32.6654 179.195 32.4254 179.083 32.0654 178.995L31.0814 178.767C30.4654 178.615 30.0054 178.391 29.7014 178.095C29.4054 177.791 29.2574 177.419 29.2574 176.979C29.2574 176.427 29.4614 175.995 29.8694 175.683C30.2854 175.363 30.8534 175.203 31.5734 175.203C32.2854 175.203 32.8574 175.363 33.2894 175.683C33.7294 176.003 33.9774 176.451 34.0334 177.027H32.8814C32.8334 176.739 32.6934 176.519 32.4614 176.367C32.2374 176.207 31.9294 176.127 31.5374 176.127C31.1694 176.127 30.8854 176.195 30.6854 176.331C30.4934 176.459 30.3974 176.639 30.3974 176.871C30.3974 177.063 30.4694 177.223 30.6134 177.351C30.7654 177.479 31.0134 177.587 31.3574 177.675L32.3654 177.927C32.9494 178.071 33.3894 178.307 33.6854 178.635C33.9814 178.955 34.1294 179.343 34.1294 179.799C34.1294 180.351 33.9134 180.783 33.4814 181.095C33.0574 181.407 32.4614 181.563 31.6934 181.563ZM31.5494 184.023C31.1094 184.023 30.7534 183.923 30.4814 183.723C30.2174 183.531 30.0774 183.267 30.0614 182.931H30.9014C30.9174 183.067 30.9894 183.167 31.1174 183.231C31.2454 183.295 31.3934 183.327 31.5614 183.327C31.7134 183.327 31.8454 183.295 31.9574 183.231C32.0694 183.175 32.1254 183.091 32.1254 182.979C32.1254 182.851 32.0494 182.743 31.8974 182.655C31.7454 182.575 31.4534 182.527 31.0214 182.511L31.3334 181.299H32.1254L31.9454 181.923C32.3214 182.003 32.5894 182.135 32.7494 182.319C32.9174 182.511 33.0014 182.731 33.0014 182.979C33.0014 183.299 32.8694 183.551 32.6054 183.735C32.3494 183.927 31.9974 184.023 31.5494 184.023ZM35.3096 181.443V175.323H36.5576V181.443H35.3096ZM38.3096 181.443V175.323H39.4976V176.763H39.5576V181.443H38.3096ZM42.6536 181.443V177.507C42.6536 177.083 42.5456 176.767 42.3296 176.559C42.1216 176.351 41.8096 176.247 41.3936 176.247C41.0336 176.247 40.7136 176.327 40.4336 176.487C40.1616 176.647 39.9456 176.867 39.7856 177.147C39.6336 177.427 39.5576 177.759 39.5576 178.143L39.4016 176.679C39.6016 176.223 39.9096 175.863 40.3256 175.599C40.7416 175.335 41.2256 175.203 41.7776 175.203C42.4336 175.203 42.9496 175.387 43.3256 175.755C43.7016 176.123 43.8896 176.611 43.8896 177.219V181.443H42.6536ZM49.3086 181.443C49.2686 181.291 49.2406 181.123 49.2246 180.939C49.2166 180.755 49.2126 180.531 49.2126 180.267H49.1526V177.351C49.1526 176.959 49.0526 176.667 48.8526 176.475C48.6606 176.275 48.3526 176.175 47.9286 176.175C47.5206 176.175 47.1926 176.255 46.9446 176.415C46.7046 176.575 46.5646 176.803 46.5246 177.099H45.3366C45.3926 176.523 45.6526 176.063 46.1166 175.719C46.5806 175.375 47.2006 175.203 47.9766 175.203C48.7766 175.203 49.3766 175.391 49.7766 175.767C50.1766 176.135 50.3766 176.679 50.3766 177.399V180.267C50.3766 180.451 50.3886 180.639 50.4126 180.831C50.4366 181.023 50.4726 181.227 50.5206 181.443H49.3086ZM47.1966 181.563C46.5726 181.563 46.0766 181.411 45.7086 181.107C45.3406 180.795 45.1566 180.375 45.1566 179.847C45.1566 179.303 45.3486 178.875 45.7326 178.563C46.1246 178.243 46.6846 178.027 47.4126 177.915L49.4286 177.591V178.467L47.6046 178.755C47.1966 178.819 46.8886 178.927 46.6806 179.079C46.4806 179.231 46.3806 179.451 46.3806 179.739C46.3806 180.019 46.4726 180.231 46.6566 180.375C46.8486 180.511 47.1246 180.579 47.4846 180.579C47.9646 180.579 48.3606 180.463 48.6726 180.231C48.9926 179.999 49.1526 179.707 49.1526 179.355L49.3086 180.243C49.1646 180.667 48.9086 180.995 48.5406 181.227C48.1726 181.451 47.7246 181.563 47.1966 181.563ZM54.4346 181.443V172.803H55.6826V181.443H54.4346ZM58.7786 181.443V177.507C58.7786 177.083 58.6706 176.767 58.4546 176.559C58.2466 176.351 57.9346 176.247 57.5186 176.247C57.1586 176.247 56.8386 176.327 56.5586 176.487C56.2866 176.647 56.0706 176.867 55.9106 177.147C55.7586 177.427 55.6826 177.759 55.6826 178.143L55.5266 176.679C55.7266 176.223 56.0346 175.863 56.4506 175.599C56.8666 175.335 57.3506 175.203 57.9026 175.203C58.5586 175.203 59.0746 175.387 59.4506 175.755C59.8266 176.123 60.0146 176.611 60.0146 177.219V181.443H58.7786ZM65.4336 181.443C65.3936 181.291 65.3656 181.123 65.3496 180.939C65.3416 180.755 65.3376 180.531 65.3376 180.267H65.2776V177.351C65.2776 176.959 65.1776 176.667 64.9776 176.475C64.7856 176.275 64.4776 176.175 64.0536 176.175C63.6456 176.175 63.3176 176.255 63.0696 176.415C62.8296 176.575 62.6896 176.803 62.6496 177.099H61.4616C61.5176 176.523 61.7776 176.063 62.2416 175.719C62.7056 175.375 63.3256 175.203 64.1016 175.203C64.9016 175.203 65.5016 175.391 65.9016 175.767C66.3016 176.135 66.5016 176.679 66.5016 177.399V180.267C66.5016 180.451 66.5136 180.639 66.5376 180.831C66.5616 181.023 66.5976 181.227 66.6456 181.443H65.4336ZM63.3216 181.563C62.6976 181.563 62.2016 181.411 61.8336 181.107C61.4656 180.795 61.2816 180.375 61.2816 179.847C61.2816 179.303 61.4736 178.875 61.8576 178.563C62.2496 178.243 62.8096 178.027 63.5376 177.915L65.5536 177.591V178.467L63.7296 178.755C63.3216 178.819 63.0136 178.927 62.8056 179.079C62.6056 179.231 62.5056 179.451 62.5056 179.739C62.5056 180.019 62.5976 180.231 62.7816 180.375C62.9736 180.511 63.2496 180.579 63.6096 180.579C64.0896 180.579 64.4856 180.463 64.7976 180.231C65.1176 179.999 65.2776 179.707 65.2776 179.355L65.4336 180.243C65.2896 180.667 65.0336 180.995 64.6656 181.227C64.2976 181.451 63.8496 181.563 63.3216 181.563ZM68.4618 181.443V174.615C68.4618 173.991 68.6378 173.515 68.9898 173.187C69.3418 172.851 69.8698 172.683 70.5738 172.683C70.7338 172.683 70.8658 172.691 70.9698 172.707C71.0738 172.723 71.1658 172.747 71.2458 172.779V173.739C71.1898 173.723 71.1138 173.707 71.0178 173.691C70.9298 173.675 70.8298 173.667 70.7178 173.667C70.3658 173.667 70.1098 173.755 69.9498 173.931C69.7898 174.099 69.7098 174.339 69.7098 174.651V181.443H68.4618ZM67.2858 176.319V175.323H71.1138V176.319H67.2858ZM75.0386 181.563C74.3266 181.563 73.8026 181.399 73.4666 181.071C73.1386 180.735 72.9746 180.243 72.9746 179.595V173.919L74.2106 173.451V179.607C74.2106 179.927 74.2946 180.163 74.4626 180.315C74.6306 180.467 74.9026 180.543 75.2786 180.543C75.4226 180.543 75.5506 180.531 75.6626 180.507C75.7746 180.483 75.8706 180.455 75.9506 180.423V181.431C75.8626 181.471 75.7386 181.503 75.5786 181.527C75.4186 181.551 75.2386 181.563 75.0386 181.563ZM71.7506 176.319V175.323H75.9506V176.319H71.7506ZM80.8907 181.443C80.8507 181.291 80.8227 181.123 80.8067 180.939C80.7987 180.755 80.7947 180.531 80.7947 180.267H80.7347V177.351C80.7347 176.959 80.6347 176.667 80.4347 176.475C80.2427 176.275 79.9347 176.175 79.5107 176.175C79.1027 176.175 78.7747 176.255 78.5267 176.415C78.2867 176.575 78.1467 176.803 78.1067 177.099H76.9187C76.9747 176.523 77.2347 176.063 77.6987 175.719C78.1627 175.375 78.7827 175.203 79.5587 175.203C80.3587 175.203 80.9587 175.391 81.3587 175.767C81.7587 176.135 81.9587 176.679 81.9587 177.399V180.267C81.9587 180.451 81.9707 180.639 81.9947 180.831C82.0187 181.023 82.0547 181.227 82.1027 181.443H80.8907ZM78.7787 181.563C78.1547 181.563 77.6587 181.411 77.2907 181.107C76.9227 180.795 76.7387 180.375 76.7387 179.847C76.7387 179.303 76.9307 178.875 77.3147 178.563C77.7067 178.243 78.2667 178.027 78.9947 177.915L81.0107 177.591V178.467L79.1867 178.755C78.7787 178.819 78.4707 178.927 78.2627 179.079C78.0627 179.231 77.9627 179.451 77.9627 179.739C77.9627 180.019 78.0547 180.231 78.2387 180.375C78.4307 180.511 78.7067 180.579 79.0667 180.579C79.5467 180.579 79.9427 180.463 80.2547 180.231C80.5747 179.999 80.7347 179.707 80.7347 179.355L80.8907 180.243C80.7467 180.667 80.4907 180.995 80.1227 181.227C79.7547 181.451 79.3067 181.563 78.7787 181.563ZM83.6494 181.443V172.803H84.8974V181.443H83.6494ZM86.6494 181.443V175.323H87.8974V181.443H86.6494ZM89.6494 181.443V172.647H90.8974V181.443H89.6494ZM93.6214 181.443L90.6094 178.263L93.5254 175.323H95.0974L91.7854 178.539L91.8454 177.975L95.2174 181.443H93.6214Z" fill="white" fill-opacity="0.8"/>
<g filter="url(#filter1_i_14007_2446)">
<path d="M24 11.9425C24 5.59123 29.1487 0.442505 35.5 0.442505H73.5C79.8513 0.442505 85 5.59123 85 11.9425C85 18.2938 79.8513 23.4425 73.5 23.4425H35.5C29.1487 23.4425 24 18.2938 24 11.9425Z" fill="#5949E6"/>
<path d="M42.9224 14.6065V9.3625H43.7624V14.6065H42.9224ZM40.8704 12.3985V11.5825H45.8024V12.3985H40.8704ZM47.3567 16.4425C47.4687 15.0825 47.7847 13.7385 48.3047 12.4105C48.8327 11.0745 49.6207 9.7105 50.6687 8.3185L50.7287 8.6665H45.6767V7.8025H51.5087V8.5225C50.8687 9.4585 50.3367 10.3625 49.9127 11.2345C49.4967 12.1065 49.1727 12.9705 48.9407 13.8265C48.7087 14.6745 48.5607 15.5465 48.4967 16.4425H47.3567ZM55.4901 16.5625C54.8101 16.5625 54.2141 16.3745 53.7021 15.9985C53.1981 15.6145 52.8021 15.0865 52.5141 14.4145C52.2341 13.7345 52.0941 12.9585 52.0941 12.0865C52.0941 11.2145 52.2341 10.4505 52.5141 9.7945C52.7941 9.1305 53.1901 8.6145 53.7021 8.2465C54.2141 7.8705 54.8101 7.6825 55.4901 7.6825C56.1701 7.6825 56.7621 7.8705 57.2661 8.2465C57.7781 8.6145 58.1741 9.1305 58.4541 9.7945C58.7421 10.4505 58.8861 11.2145 58.8861 12.0865C58.8861 12.9665 58.7421 13.7425 58.4541 14.4145C58.1741 15.0865 57.7781 15.6145 57.2661 15.9985C56.7621 16.3745 56.1701 16.5625 55.4901 16.5625ZM55.4901 15.6985C55.9781 15.6985 56.3941 15.5545 56.7381 15.2665C57.0821 14.9705 57.3461 14.5545 57.5301 14.0185C57.7141 13.4745 57.8061 12.8265 57.8061 12.0745C57.8061 11.3305 57.7141 10.6945 57.5301 10.1665C57.3541 9.6385 57.0941 9.2385 56.7501 8.9665C56.4061 8.6865 55.9861 8.5465 55.4901 8.5465C54.9941 8.5465 54.5741 8.6865 54.2301 8.9665C53.8861 9.2465 53.6221 9.6505 53.4381 10.1785C53.2621 10.6985 53.1741 11.3305 53.1741 12.0745C53.1741 12.8265 53.2661 13.4745 53.4501 14.0185C53.6341 14.5625 53.8981 14.9785 54.2421 15.2665C54.5861 15.5545 55.0021 15.6985 55.4901 15.6985ZM60.436 16.4425L66.892 7.8025H67.888L61.432 16.4425H60.436ZM66.46 16.5625C66.124 16.5625 65.808 16.4825 65.512 16.3225C65.216 16.1625 64.976 15.9185 64.792 15.5905C64.608 15.2625 64.516 14.8465 64.516 14.3425C64.516 13.8385 64.604 13.4265 64.78 13.1065C64.964 12.7785 65.204 12.5345 65.5 12.3745C65.796 12.2145 66.116 12.1345 66.46 12.1345C66.82 12.1345 67.148 12.2145 67.444 12.3745C67.748 12.5345 67.988 12.7785 68.164 13.1065C68.34 13.4265 68.428 13.8385 68.428 14.3425C68.428 14.8465 68.336 15.2625 68.152 15.5905C67.968 15.9185 67.724 16.1625 67.42 16.3225C67.124 16.4825 66.804 16.5625 66.46 16.5625ZM66.46 15.9025C66.788 15.9025 67.056 15.7665 67.264 15.4945C67.48 15.2225 67.588 14.8345 67.588 14.3305C67.588 13.8345 67.48 13.4545 67.264 13.1905C67.056 12.9265 66.788 12.7945 66.46 12.7945C66.132 12.7945 65.868 12.9265 65.668 13.1905C65.468 13.4465 65.368 13.8265 65.368 14.3305C65.368 14.8425 65.468 15.2345 65.668 15.5065C65.868 15.7705 66.132 15.9025 66.46 15.9025ZM61.78 12.1105C61.436 12.1105 61.116 12.0305 60.82 11.8705C60.524 11.7105 60.284 11.4665 60.1 11.1385C59.924 10.8105 59.836 10.3945 59.836 9.8905C59.836 9.3865 59.924 8.9745 60.1 8.6545C60.284 8.3265 60.524 8.0825 60.82 7.9225C61.116 7.7625 61.436 7.6825 61.78 7.6825C62.14 7.6825 62.468 7.7625 62.764 7.9225C63.06 8.0825 63.296 8.3265 63.472 8.6545C63.648 8.9745 63.736 9.3865 63.736 9.8905C63.736 10.3945 63.644 10.8105 63.46 11.1385C63.276 11.4665 63.036 11.7105 62.74 11.8705C62.444 12.0305 62.124 12.1105 61.78 12.1105ZM61.78 11.4505C62.1 11.4505 62.364 11.3185 62.572 11.0545C62.788 10.7825 62.896 10.3905 62.896 9.8785C62.896 9.3825 62.792 9.0025 62.584 8.7385C62.376 8.4745 62.108 8.3425 61.78 8.3425C61.452 8.3425 61.184 8.4745 60.976 8.7385C60.776 8.9945 60.676 9.3745 60.676 9.8785C60.676 10.3905 60.776 10.7825 60.976 11.0545C61.184 11.3185 61.452 11.4505 61.78 11.4505Z" fill="white"/>
</g>
</g>
<defs>
<filter id="filter0_i_14007_2446" x="0" y="0.442505" width="114" height="200" filterUnits="userSpaceOnUse" color-interpolation-filters="sRGB">
<feFlood flood-opacity="0" result="BackgroundImageFix"/>
<feBlend mode="normal" in="SourceGraphic" in2="BackgroundImageFix" result="shape"/>
<feColorMatrix in="SourceAlpha" type="matrix" values="0 0 0 0 0 0 0 0 0 0 0 0 0 0 0 0 0 0 127 0" result="hardAlpha"/>
<feOffset dx="4" dy="4"/>
<feGaussianBlur stdDeviation="7.5"/>
<feComposite in2="hardAlpha" operator="arithmetic" k2="-1" k3="1"/>
<feColorMatrix type="matrix" values="0 0 0 0 1 0 0 0 0 1 0 0 0 0 1 0 0 0 0.3 0"/>
<feBlend mode="normal" in2="shape" result="effect1_innerShadow_14007_2446"/>
</filter>
<filter id="filter1_i_14007_2446" x="24" y="0.442505" width="61" height="23" filterUnits="userSpaceOnUse" color-interpolation-filters="sRGB">
<feFlood flood-opacity="0" result="BackgroundImageFix"/>
<feBlend mode="normal" in="SourceGraphic" in2="BackgroundImageFix" result="shape"/>
<feColorMatrix in="SourceAlpha" type="matrix" values="0 0 0 0 0 0 0 0 0 0 0 0 0 0 0 0 0 0 127 0" result="hardAlpha"/>
<feOffset/>
<feGaussianBlur stdDeviation="4.16399"/>
<feComposite in2="hardAlpha" operator="arithmetic" k2="-1" k3="1"/>
<feColorMatrix type="matrix" values="0 0 0 0 1 0 0 0 0 1 0 0 0 0 1 0 0 0 1 0"/>
<feBlend mode="normal" in2="shape" result="effect1_innerShadow_14007_2446"/>
</filter>
<radialGradient id="paint0_radial_14007_2446" cx="0" cy="0" r="1" gradientTransform="matrix(66.0598 141.543 -159.019 71.4186 29.0845 38.7527)" gradientUnits="userSpaceOnUse">
<stop stop-color="#5949E6"/>
<stop offset="1" stop-color="#E50914"/>
</radialGradient>
</defs>
</svg>
