<svg width="110" height="197" viewBox="0 0 110 197" fill="none" xmlns="http://www.w3.org/2000/svg">
<g filter="url(#filter0_i_14007_2445)">
<path d="M0 26.4425C0 17.6059 7.16344 10.4425 16 10.4425H94C102.837 10.4425 110 17.6059 110 26.4425V180.443C110 189.279 102.837 196.443 94 196.443H16C7.16344 196.443 0 189.279 0 180.443V26.4425Z" fill="url(#paint0_radial_14007_2445)"/>
<path d="M16 10.9425H94C102.56 10.9425 109.5 17.8821 109.5 26.4425V180.443C109.5 189.003 102.56 195.943 94 195.943H16C7.43959 195.943 0.5 189.003 0.5 180.443V26.4425C0.5 17.8821 7.43959 10.9425 16 10.9425Z" stroke="white" stroke-opacity="0.4"/>
<path d="M49.1096 56.3225V57.9425H42.0596V57.3425C42.0596 56.9625 42.1146 56.6025 42.2246 56.2625C42.3446 55.9125 42.4696 55.6225 42.5996 55.3925C42.7296 55.1625 42.9446 54.9075 43.2446 54.6275C43.5446 54.3375 43.7746 54.1325 43.9346 54.0125C44.0946 53.8825 44.3746 53.6725 44.7746 53.3825C45.1846 53.0925 45.4446 52.9075 45.5546 52.8275C46.1846 52.3675 46.6396 51.9625 46.9196 51.6125C47.1996 51.2625 47.3396 50.8425 47.3396 50.3525C47.3396 49.8625 47.1896 49.4725 46.8896 49.1825C46.5896 48.8825 46.1746 48.7325 45.6446 48.7325C45.0946 48.7325 44.6396 48.8975 44.2796 49.2275C43.9196 49.5475 43.7346 49.9875 43.7246 50.5475H42.0596C42.0596 49.5375 42.3996 48.7125 43.0796 48.0725C43.7696 47.4325 44.6296 47.1125 45.6596 47.1125C46.6096 47.1125 47.4046 47.3925 48.0446 47.9525C48.6846 48.5125 49.0046 49.2975 49.0046 50.3075C49.0046 51.1075 48.8196 51.7825 48.4496 52.3325C48.0896 52.8725 47.4896 53.4425 46.6496 54.0425C46.5196 54.1425 46.2796 54.3125 45.9296 54.5525C45.5796 54.7925 45.3196 54.9775 45.1496 55.1075C44.9896 55.2375 44.8146 55.4175 44.6246 55.6475C44.4346 55.8675 44.3046 56.0925 44.2346 56.3225H49.1096ZM57.3211 56.9525C56.6011 57.7125 55.6761 58.0925 54.5461 58.0925C53.4161 58.0925 52.4911 57.7125 51.7711 56.9525C51.0511 56.1825 50.6911 55.1975 50.6911 53.9975V51.2075C50.6911 50.0075 51.0511 49.0275 51.7711 48.2675C52.4911 47.4975 53.4161 47.1125 54.5461 47.1125C55.6761 47.1125 56.6011 47.4975 57.3211 48.2675C58.0511 49.0275 58.4161 50.0075 58.4161 51.2075V53.9975C58.4161 55.1975 58.0511 56.1825 57.3211 56.9525ZM54.5461 56.4725C55.2161 56.4725 55.7511 56.2525 56.1511 55.8125C56.5611 55.3725 56.7661 54.7675 56.7661 53.9975V51.2075C56.7661 50.4375 56.5611 49.8325 56.1511 49.3925C55.7511 48.9525 55.2161 48.7325 54.5461 48.7325C53.8861 48.7325 53.3511 48.9525 52.9411 49.3925C52.5411 49.8325 52.3411 50.4375 52.3411 51.2075V53.9975C52.3411 54.7675 52.5411 55.3725 52.9411 55.8125C53.3511 56.2525 53.8861 56.4725 54.5461 56.4725ZM66.7107 56.9525C65.9907 57.7125 65.0657 58.0925 63.9357 58.0925C62.8057 58.0925 61.8807 57.7125 61.1607 56.9525C60.4407 56.1825 60.0807 55.1975 60.0807 53.9975V51.2075C60.0807 50.0075 60.4407 49.0275 61.1607 48.2675C61.8807 47.4975 62.8057 47.1125 63.9357 47.1125C65.0657 47.1125 65.9907 47.4975 66.7107 48.2675C67.4407 49.0275 67.8057 50.0075 67.8057 51.2075V53.9975C67.8057 55.1975 67.4407 56.1825 66.7107 56.9525ZM63.9357 56.4725C64.6057 56.4725 65.1407 56.2525 65.5407 55.8125C65.9507 55.3725 66.1557 54.7675 66.1557 53.9975V51.2075C66.1557 50.4375 65.9507 49.8325 65.5407 49.3925C65.1407 48.9525 64.6057 48.7325 63.9357 48.7325C63.2757 48.7325 62.7407 48.9525 62.3307 49.3925C61.9307 49.8325 61.7307 50.4375 61.7307 51.2075V53.9975C61.7307 54.7675 61.9307 55.3725 62.3307 55.8125C62.7407 56.2525 63.2757 56.4725 63.9357 56.4725Z" fill="white" fill-opacity="0.9"/>
<path d="M41.3696 53.8175H68.6307V54.9125H41.3696V53.8175Z" fill="white" fill-opacity="0.9"/>
<path d="M33.2391 93.2625C31.6178 93.2625 30.1565 92.9745 28.8551 92.3985C27.5751 91.8012 26.5298 90.9372 25.7191 89.8065C24.9298 88.6545 24.4711 87.2572 24.3431 85.6145H29.2391C29.4098 86.9372 29.8151 87.9185 30.4551 88.5585C31.0951 89.1772 31.9591 89.4865 33.0471 89.4865C33.9858 89.4865 34.7645 89.2092 35.3831 88.6545C36.0231 88.0998 36.3431 87.2892 36.3431 86.2225C36.3431 85.1985 36.0338 84.3772 35.4151 83.7585C34.8178 83.1185 33.7938 82.7985 32.3431 82.7985H30.2951V79.0865H32.2471C33.5058 79.0865 34.4125 78.8092 34.9671 78.2545C35.5218 77.6998 35.7991 76.9958 35.7991 76.1425C35.7991 75.3318 35.5858 74.6705 35.1591 74.1585C34.7325 73.6252 34.0071 73.3585 32.9831 73.3585C32.1085 73.3585 31.3511 73.6252 30.7111 74.1585C30.0711 74.6918 29.6765 75.5025 29.5271 76.5905H24.5991C24.7911 75.1398 25.2498 73.8918 25.9751 72.8465C26.7005 71.8012 27.6711 71.0012 28.8871 70.4465C30.1031 69.8705 31.5218 69.5825 33.1431 69.5825C34.7645 69.5825 36.1511 69.8385 37.3031 70.3505C38.4765 70.8412 39.3831 71.5452 40.0231 72.4625C40.6631 73.3798 40.9831 74.4785 40.9831 75.7585C40.9831 76.8252 40.7378 77.7638 40.2471 78.5745C39.7565 79.3852 39.1378 80.0145 38.3911 80.4625C37.6658 80.9105 36.9298 81.1345 36.1831 81.1345L36.1511 80.4625C37.2818 80.4625 38.2525 80.7398 39.0631 81.2945C39.8738 81.8278 40.4925 82.5532 40.9191 83.4705C41.3458 84.3665 41.5591 85.3692 41.5591 86.4785C41.5591 87.8652 41.1965 89.0705 40.4711 90.0945C39.7458 91.1185 38.7538 91.9078 37.4951 92.4625C36.2365 92.9958 34.8178 93.2625 33.2391 93.2625ZM53.2401 93.2625C51.3201 93.2625 49.6028 92.7612 48.0881 91.7585C46.5948 90.7345 45.4215 89.3265 44.5681 87.5345C43.7148 85.7212 43.2881 83.6518 43.2881 81.3265C43.2881 79.0012 43.7148 76.9638 44.5681 75.2145C45.4215 73.4438 46.5948 72.0678 48.0881 71.0865C49.6028 70.0838 51.3201 69.5825 53.2401 69.5825C55.1815 69.5825 56.8988 70.0838 58.3921 71.0865C59.8855 72.0678 61.0588 73.4438 61.9121 75.2145C62.7655 76.9638 63.1921 79.0012 63.1921 81.3265C63.1921 83.6732 62.7655 85.7425 61.9121 87.5345C61.0588 89.3265 59.8748 90.7345 58.3601 91.7585C56.8668 92.7612 55.1601 93.2625 53.2401 93.2625ZM53.2401 89.1665C54.3281 89.1665 55.2241 88.8038 55.9281 88.0785C56.6321 87.3532 57.1548 86.3932 57.4961 85.1985C57.8375 84.0038 58.0081 82.7025 58.0081 81.2945C58.0081 79.8865 57.8375 78.6065 57.4961 77.4545C57.1548 76.3025 56.6321 75.3852 55.9281 74.7025C55.2241 74.0198 54.3281 73.6785 53.2401 73.6785C52.1521 73.6785 51.2561 74.0305 50.5521 74.7345C49.8481 75.4172 49.3255 76.3345 48.9841 77.4865C48.6428 78.6385 48.4721 79.9078 48.4721 81.2945C48.4721 82.7238 48.6428 84.0358 48.9841 85.2305C49.3255 86.4252 49.8481 87.3852 50.5521 88.1105C51.2775 88.8145 52.1735 89.1665 53.2401 89.1665ZM75.3964 93.2625C73.4764 93.2625 71.759 92.7612 70.2444 91.7585C68.751 90.7345 67.5777 89.3265 66.7244 87.5345C65.871 85.7212 65.4444 83.6518 65.4444 81.3265C65.4444 79.0012 65.871 76.9638 66.7244 75.2145C67.5777 73.4438 68.751 72.0678 70.2444 71.0865C71.759 70.0838 73.4764 69.5825 75.3964 69.5825C77.3377 69.5825 79.055 70.0838 80.5484 71.0865C82.0417 72.0678 83.215 73.4438 84.0684 75.2145C84.9217 76.9638 85.3484 79.0012 85.3484 81.3265C85.3484 83.6732 84.9217 85.7425 84.0684 87.5345C83.215 89.3265 82.031 90.7345 80.5164 91.7585C79.023 92.7612 77.3164 93.2625 75.3964 93.2625ZM75.3964 89.1665C76.4844 89.1665 77.3804 88.8038 78.0844 88.0785C78.7884 87.3532 79.311 86.3932 79.6524 85.1985C79.9937 84.0038 80.1644 82.7025 80.1644 81.2945C80.1644 79.8865 79.9937 78.6065 79.6524 77.4545C79.311 76.3025 78.7884 75.3852 78.0844 74.7025C77.3804 74.0198 76.4844 73.6785 75.3964 73.6785C74.3084 73.6785 73.4124 74.0305 72.7084 74.7345C72.0044 75.4172 71.4817 76.3345 71.1404 77.4865C70.799 78.6385 70.6284 79.9078 70.6284 81.2945C70.6284 82.7238 70.799 84.0358 71.1404 85.2305C71.4817 86.4252 72.0044 87.3852 72.7084 88.1105C73.4337 88.8145 74.3297 89.1665 75.3964 89.1665Z" fill="white"/>
<path d="M38.474 115.083C38.1193 115.083 37.7787 115.055 37.452 114.999C37.1253 114.952 36.8873 114.891 36.738 114.817V113.557C36.9433 113.641 37.1907 113.711 37.48 113.767C37.7693 113.823 38.0633 113.851 38.362 113.851C38.978 113.851 39.44 113.725 39.748 113.473C40.0653 113.211 40.224 112.801 40.224 112.241V104.863H41.708V112.297C41.708 113.23 41.4327 113.93 40.882 114.397C40.3313 114.854 39.5287 115.083 38.474 115.083ZM46.7543 115.083C46.0357 115.083 45.401 114.924 44.8503 114.607C44.309 114.289 43.8843 113.851 43.5763 113.291C43.2683 112.731 43.1143 112.087 43.1143 111.359C43.1143 110.621 43.2637 109.977 43.5623 109.427C43.8703 108.867 44.2997 108.433 44.8503 108.125C45.401 107.817 46.031 107.663 46.7403 107.663C47.431 107.663 48.0283 107.812 48.5323 108.111C49.0457 108.4 49.4377 108.806 49.7083 109.329C49.9883 109.851 50.1283 110.472 50.1283 111.191C50.1283 111.303 50.1237 111.41 50.1143 111.513C50.1143 111.606 50.105 111.704 50.0863 111.807H44.0943V110.715H49.0643L48.7003 111.149C48.7003 110.383 48.5277 109.8 48.1823 109.399C47.837 108.997 47.3563 108.797 46.7403 108.797C46.0777 108.797 45.5503 109.025 45.1583 109.483C44.7757 109.931 44.5843 110.556 44.5843 111.359C44.5843 112.171 44.7757 112.805 45.1583 113.263C45.5503 113.72 46.0917 113.949 46.7823 113.949C47.2023 113.949 47.5663 113.865 47.8743 113.697C48.1823 113.519 48.411 113.263 48.5603 112.927H49.9323C49.699 113.599 49.3023 114.126 48.7423 114.509C48.1917 114.891 47.529 115.083 46.7543 115.083ZM54.5327 115.083C53.702 115.083 53.0907 114.891 52.6987 114.509C52.316 114.117 52.1247 113.543 52.1247 112.787V106.165L53.5667 105.619V112.801C53.5667 113.174 53.6647 113.449 53.8607 113.627C54.0567 113.804 54.374 113.893 54.8127 113.893C54.9807 113.893 55.13 113.879 55.2607 113.851C55.3913 113.823 55.5033 113.79 55.5967 113.753V114.929C55.494 114.975 55.3493 115.013 55.1627 115.041C54.976 115.069 54.766 115.083 54.5327 115.083ZM50.6967 108.965V107.803H55.5967V108.965H50.6967ZM59.8937 115.083C59.1657 115.083 58.5263 114.924 57.9757 114.607C57.425 114.28 56.9957 113.837 56.6877 113.277C56.3797 112.707 56.2257 112.063 56.2257 111.345C56.2257 110.617 56.3797 109.977 56.6877 109.427C57.005 108.876 57.4343 108.447 57.9757 108.139C58.5263 107.821 59.1657 107.663 59.8937 107.663C60.631 107.663 61.275 107.821 61.8257 108.139C62.3763 108.447 62.801 108.876 63.0997 109.427C63.4077 109.977 63.5617 110.617 63.5617 111.345C63.5617 112.063 63.4077 112.707 63.0997 113.277C62.801 113.837 62.3763 114.28 61.8257 114.607C61.275 114.924 60.631 115.083 59.8937 115.083ZM59.8937 113.893C60.3323 113.893 60.7103 113.785 61.0277 113.571C61.3543 113.356 61.611 113.057 61.7977 112.675C61.9843 112.292 62.0777 111.844 62.0777 111.331C62.0777 110.565 61.8723 109.963 61.4617 109.525C61.0603 109.077 60.5377 108.853 59.8937 108.853C59.259 108.853 58.7363 109.077 58.3257 109.525C57.9243 109.973 57.7237 110.575 57.7237 111.331C57.7237 111.844 57.8123 112.292 57.9897 112.675C58.1763 113.057 58.433 113.356 58.7597 113.571C59.0957 113.785 59.4737 113.893 59.8937 113.893ZM65.0572 114.943V107.803H66.4432V109.483H66.5132V114.943H65.0572ZM70.1252 114.943V110.351C70.1252 109.856 69.9992 109.487 69.7472 109.245C69.5045 109.002 69.1405 108.881 68.6552 108.881C68.2352 108.881 67.8618 108.974 67.5352 109.161C67.2178 109.347 66.9658 109.604 66.7792 109.931C66.6018 110.257 66.5132 110.645 66.5132 111.093L66.3312 109.385C66.5645 108.853 66.9238 108.433 67.4092 108.125C67.8945 107.817 68.4592 107.663 69.1032 107.663C69.8685 107.663 70.4705 107.877 70.9092 108.307C71.3478 108.736 71.5672 109.305 71.5672 110.015V114.943H70.1252Z" fill="white"/>
<line x1="14.5" y1="133.943" x2="95.5" y2="133.943" stroke="white" stroke-opacity="0.1"/>
<path d="M31.9161 164.603C31.6921 164.603 31.4468 164.587 31.1801 164.555C30.9135 164.533 30.6735 164.496 30.4601 164.443V159.547L28.9081 160.075V158.683L30.4601 158.155V157.163L28.9081 157.691V156.299L30.4601 155.771V153.019H32.7961V154.971L35.2921 154.107V155.499L32.7961 156.363V157.355L35.2921 156.491V157.867L32.7961 158.731V162.651C33.4681 162.533 33.9908 162.309 34.3641 161.979C34.7481 161.648 35.0148 161.216 35.1641 160.683C35.3241 160.149 35.4041 159.536 35.4041 158.843H37.5961C37.5961 159.579 37.5001 160.293 37.3081 160.987C37.1161 161.669 36.8015 162.283 36.3641 162.827C35.9375 163.371 35.3561 163.803 34.6201 164.123C33.8948 164.443 32.9935 164.603 31.9161 164.603ZM42.6564 164.603C41.8244 164.603 41.115 164.453 40.5284 164.155C39.9524 163.845 39.499 163.424 39.1684 162.891C38.8377 162.347 38.6297 161.723 38.5444 161.019H40.9924C41.0457 161.584 41.2164 162.011 41.5044 162.299C41.7924 162.576 42.203 162.715 42.7364 162.715C43.1204 162.715 43.4404 162.64 43.6964 162.491C43.963 162.331 44.171 162.091 44.3204 161.771C44.4804 161.44 44.5924 161.013 44.6564 160.491C44.731 159.968 44.7684 159.333 44.7684 158.587V157.547L45.4244 157.563C45.307 158.075 45.099 158.517 44.8004 158.891C44.5017 159.264 44.123 159.552 43.6644 159.755C43.2164 159.957 42.699 160.059 42.1124 160.059C41.3764 160.059 40.7257 159.909 40.1604 159.611C39.6057 159.301 39.1684 158.88 38.8484 158.347C38.5284 157.803 38.3684 157.179 38.3684 156.475C38.3684 155.728 38.5497 155.077 38.9124 154.523C39.275 153.968 39.7817 153.536 40.4324 153.227C41.083 152.917 41.8404 152.763 42.7044 152.763C44.2404 152.763 45.419 153.259 46.2404 154.251C47.0724 155.232 47.4884 156.656 47.4884 158.523C47.4884 159.781 47.2964 160.869 46.9124 161.787C46.539 162.693 45.9897 163.392 45.2644 163.883C44.5497 164.363 43.6804 164.603 42.6564 164.603ZM42.9284 158.203C43.5257 158.203 43.9737 158.043 44.2724 157.723C44.571 157.403 44.7204 156.997 44.7204 156.507C44.7204 156.165 44.651 155.856 44.5124 155.579C44.3844 155.291 44.187 155.067 43.9204 154.907C43.6537 154.736 43.323 154.651 42.9284 154.651C42.3417 154.651 41.8884 154.827 41.5684 155.179C41.2484 155.52 41.0884 155.941 41.0884 156.443C41.0884 156.944 41.2484 157.365 41.5684 157.707C41.8884 158.037 42.3417 158.203 42.9284 158.203ZM52.7189 164.603C51.8869 164.603 51.1775 164.453 50.5909 164.155C50.0149 163.845 49.5615 163.424 49.2309 162.891C48.9002 162.347 48.6922 161.723 48.6069 161.019H51.0549C51.1082 161.584 51.2789 162.011 51.5669 162.299C51.8549 162.576 52.2655 162.715 52.7989 162.715C53.1829 162.715 53.5029 162.64 53.7589 162.491C54.0255 162.331 54.2335 162.091 54.3829 161.771C54.5429 161.44 54.6549 161.013 54.7189 160.491C54.7935 159.968 54.8309 159.333 54.8309 158.587V157.547L55.4869 157.563C55.3695 158.075 55.1615 158.517 54.8629 158.891C54.5642 159.264 54.1855 159.552 53.7269 159.755C53.2789 159.957 52.7615 160.059 52.1749 160.059C51.4389 160.059 50.7882 159.909 50.2229 159.611C49.6682 159.301 49.2309 158.88 48.9109 158.347C48.5909 157.803 48.4309 157.179 48.4309 156.475C48.4309 155.728 48.6122 155.077 48.9749 154.523C49.3375 153.968 49.8442 153.536 50.4949 153.227C51.1455 152.917 51.9029 152.763 52.7669 152.763C54.3029 152.763 55.4815 153.259 56.3029 154.251C57.1349 155.232 57.5509 156.656 57.5509 158.523C57.5509 159.781 57.3589 160.869 56.9749 161.787C56.6015 162.693 56.0522 163.392 55.3269 163.883C54.6122 164.363 53.7429 164.603 52.7189 164.603ZM52.9909 158.203C53.5882 158.203 54.0362 158.043 54.3349 157.723C54.6335 157.403 54.7829 156.997 54.7829 156.507C54.7829 156.165 54.7135 155.856 54.5749 155.579C54.4469 155.291 54.2495 155.067 53.9829 154.907C53.7162 154.736 53.3855 154.651 52.9909 154.651C52.4042 154.651 51.9509 154.827 51.6309 155.179C51.3109 155.52 51.1509 155.941 51.1509 156.443C51.1509 156.944 51.3109 157.365 51.6309 157.707C51.9509 158.037 52.4042 158.203 52.9909 158.203ZM58.1951 167.131V165.963C58.6965 165.813 59.0218 165.595 59.1711 165.307C59.3205 165.019 59.3951 164.645 59.3951 164.187L60.3711 164.443H58.1631V161.803H60.8031V163.675C60.8031 164.517 60.6058 165.243 60.2111 165.851C59.8165 166.459 59.1445 166.885 58.1951 167.131ZM65.797 164.603C64.965 164.603 64.2557 164.453 63.669 164.155C63.093 163.845 62.6397 163.424 62.309 162.891C61.9783 162.347 61.7703 161.723 61.685 161.019H64.133C64.1863 161.584 64.357 162.011 64.645 162.299C64.933 162.576 65.3437 162.715 65.877 162.715C66.261 162.715 66.581 162.64 66.837 162.491C67.1037 162.331 67.3117 162.091 67.461 161.771C67.621 161.44 67.733 161.013 67.797 160.491C67.8717 159.968 67.909 159.333 67.909 158.587V157.547L68.565 157.563C68.4477 158.075 68.2397 158.517 67.941 158.891C67.6423 159.264 67.2637 159.552 66.805 159.755C66.357 159.957 65.8397 160.059 65.253 160.059C64.517 160.059 63.8663 159.909 63.301 159.611C62.7463 159.301 62.309 158.88 61.989 158.347C61.669 157.803 61.509 157.179 61.509 156.475C61.509 155.728 61.6903 155.077 62.053 154.523C62.4157 153.968 62.9223 153.536 63.573 153.227C64.2237 152.917 64.981 152.763 65.845 152.763C67.381 152.763 68.5597 153.259 69.381 154.251C70.213 155.232 70.629 156.656 70.629 158.523C70.629 159.781 70.437 160.869 70.053 161.787C69.6797 162.693 69.1303 163.392 68.405 163.883C67.6903 164.363 66.821 164.603 65.797 164.603ZM66.069 158.203C66.6663 158.203 67.1143 158.043 67.413 157.723C67.7117 157.403 67.861 156.997 67.861 156.507C67.861 156.165 67.7917 155.856 67.653 155.579C67.525 155.291 67.3277 155.067 67.061 154.907C66.7943 154.736 66.4637 154.651 66.069 154.651C65.4823 154.651 65.029 154.827 64.709 155.179C64.389 155.52 64.229 155.941 64.229 156.443C64.229 156.944 64.389 157.365 64.709 157.707C65.029 158.037 65.4823 158.203 66.069 158.203ZM75.8595 164.603C75.0275 164.603 74.3182 164.453 73.7315 164.155C73.1555 163.845 72.7022 163.424 72.3715 162.891C72.0408 162.347 71.8328 161.723 71.7475 161.019H74.1955C74.2488 161.584 74.4195 162.011 74.7075 162.299C74.9955 162.576 75.4062 162.715 75.9395 162.715C76.3235 162.715 76.6435 162.64 76.8995 162.491C77.1662 162.331 77.3742 162.091 77.5235 161.771C77.6835 161.44 77.7955 161.013 77.8595 160.491C77.9342 159.968 77.9715 159.333 77.9715 158.587V157.547L78.6275 157.563C78.5102 158.075 78.3022 158.517 78.0035 158.891C77.7048 159.264 77.3262 159.552 76.8675 159.755C76.4195 159.957 75.9022 160.059 75.3155 160.059C74.5795 160.059 73.9288 159.909 73.3635 159.611C72.8088 159.301 72.3715 158.88 72.0515 158.347C71.7315 157.803 71.5715 157.179 71.5715 156.475C71.5715 155.728 71.7528 155.077 72.1155 154.523C72.4782 153.968 72.9848 153.536 73.6355 153.227C74.2862 152.917 75.0435 152.763 75.9075 152.763C77.4435 152.763 78.6222 153.259 79.4435 154.251C80.2755 155.232 80.6915 156.656 80.6915 158.523C80.6915 159.781 80.4995 160.869 80.1155 161.787C79.7422 162.693 79.1928 163.392 78.4675 163.883C77.7528 164.363 76.8835 164.603 75.8595 164.603ZM76.1315 158.203C76.7288 158.203 77.1768 158.043 77.4755 157.723C77.7742 157.403 77.9235 156.997 77.9235 156.507C77.9235 156.165 77.8542 155.856 77.7155 155.579C77.5875 155.291 77.3902 155.067 77.1235 154.907C76.8568 154.736 76.5262 154.651 76.1315 154.651C75.5448 154.651 75.0915 154.827 74.7715 155.179C74.4515 155.52 74.2915 155.941 74.2915 156.443C74.2915 156.944 74.4515 157.365 74.7715 157.707C75.0915 158.037 75.5448 158.203 76.1315 158.203Z" fill="white"/>
<path d="M16.324 181.443V180.459H18.904C19.392 180.459 19.772 180.327 20.044 180.063C20.324 179.799 20.464 179.439 20.464 178.983C20.464 178.503 20.316 178.119 20.02 177.831C19.732 177.543 19.336 177.399 18.832 177.399H16.324V176.439H18.712C19.2 176.439 19.576 176.323 19.84 176.091C20.112 175.851 20.248 175.511 20.248 175.071C20.248 174.655 20.12 174.339 19.864 174.123C19.616 173.899 19.248 173.787 18.76 173.787H16.324V172.803H18.952C19.736 172.803 20.36 172.995 20.824 173.379C21.288 173.755 21.52 174.271 21.52 174.927C21.52 175.343 21.424 175.711 21.232 176.031C21.048 176.343 20.792 176.587 20.464 176.763C20.136 176.931 19.764 177.015 19.348 177.015L19.408 176.763C19.856 176.763 20.256 176.867 20.608 177.075C20.96 177.275 21.24 177.551 21.448 177.903C21.656 178.255 21.76 178.663 21.76 179.127C21.76 179.583 21.648 179.987 21.424 180.339C21.208 180.691 20.9 180.963 20.5 181.155C20.1 181.347 19.636 181.443 19.108 181.443H16.324ZM15.388 181.443V172.803H16.66V181.443H15.388ZM26.7969 181.443C26.7569 181.291 26.7289 181.123 26.7129 180.939C26.7049 180.755 26.7009 180.531 26.7009 180.267H26.6409V177.351C26.6409 176.959 26.5409 176.667 26.3409 176.475C26.1489 176.275 25.8409 176.175 25.4169 176.175C25.0089 176.175 24.6809 176.255 24.4329 176.415C24.1929 176.575 24.0529 176.803 24.0129 177.099H22.8249C22.8809 176.523 23.1409 176.063 23.6049 175.719C24.0689 175.375 24.6889 175.203 25.4649 175.203C26.2649 175.203 26.8649 175.391 27.2649 175.767C27.6649 176.135 27.8649 176.679 27.8649 177.399V180.267C27.8649 180.451 27.8769 180.639 27.9009 180.831C27.9249 181.023 27.9609 181.227 28.0089 181.443H26.7969ZM24.6849 181.563C24.0609 181.563 23.5649 181.411 23.1969 181.107C22.8289 180.795 22.6449 180.375 22.6449 179.847C22.6449 179.303 22.8369 178.875 23.2209 178.563C23.6129 178.243 24.1729 178.027 24.9009 177.915L26.9169 177.591V178.467L25.0929 178.755C24.6849 178.819 24.3769 178.927 24.1689 179.079C23.9689 179.231 23.8689 179.451 23.8689 179.739C23.8689 180.019 23.9609 180.231 24.1449 180.375C24.3369 180.511 24.6129 180.579 24.9729 180.579C25.4529 180.579 25.8489 180.463 26.1609 180.231C26.4809 179.999 26.6409 179.707 26.6409 179.355L26.7969 180.243C26.6529 180.667 26.3969 180.995 26.0289 181.227C25.6609 181.451 25.2129 181.563 24.6849 181.563ZM31.6934 181.563C30.8934 181.563 30.2574 181.387 29.7854 181.035C29.3134 180.683 29.0454 180.187 28.9814 179.547H30.1334C30.1894 179.899 30.3494 180.171 30.6134 180.363C30.8854 180.547 31.2534 180.639 31.7174 180.639C32.1254 180.639 32.4374 180.567 32.6534 180.423C32.8694 180.279 32.9774 180.075 32.9774 179.811C32.9774 179.619 32.9134 179.459 32.7854 179.331C32.6654 179.195 32.4254 179.083 32.0654 178.995L31.0814 178.767C30.4654 178.615 30.0054 178.391 29.7014 178.095C29.4054 177.791 29.2574 177.419 29.2574 176.979C29.2574 176.427 29.4614 175.995 29.8694 175.683C30.2854 175.363 30.8534 175.203 31.5734 175.203C32.2854 175.203 32.8574 175.363 33.2894 175.683C33.7294 176.003 33.9774 176.451 34.0334 177.027H32.8814C32.8334 176.739 32.6934 176.519 32.4614 176.367C32.2374 176.207 31.9294 176.127 31.5374 176.127C31.1694 176.127 30.8854 176.195 30.6854 176.331C30.4934 176.459 30.3974 176.639 30.3974 176.871C30.3974 177.063 30.4694 177.223 30.6134 177.351C30.7654 177.479 31.0134 177.587 31.3574 177.675L32.3654 177.927C32.9494 178.071 33.3894 178.307 33.6854 178.635C33.9814 178.955 34.1294 179.343 34.1294 179.799C34.1294 180.351 33.9134 180.783 33.4814 181.095C33.0574 181.407 32.4614 181.563 31.6934 181.563ZM31.5494 184.023C31.1094 184.023 30.7534 183.923 30.4814 183.723C30.2174 183.531 30.0774 183.267 30.0614 182.931H30.9014C30.9174 183.067 30.9894 183.167 31.1174 183.231C31.2454 183.295 31.3934 183.327 31.5614 183.327C31.7134 183.327 31.8454 183.295 31.9574 183.231C32.0694 183.175 32.1254 183.091 32.1254 182.979C32.1254 182.851 32.0494 182.743 31.8974 182.655C31.7454 182.575 31.4534 182.527 31.0214 182.511L31.3334 181.299H32.1254L31.9454 181.923C32.3214 182.003 32.5894 182.135 32.7494 182.319C32.9174 182.511 33.0014 182.731 33.0014 182.979C33.0014 183.299 32.8694 183.551 32.6054 183.735C32.3494 183.927 31.9974 184.023 31.5494 184.023ZM35.3096 181.443V175.323H36.5576V181.443H35.3096ZM38.3096 181.443V175.323H39.4976V176.763H39.5576V181.443H38.3096ZM42.6536 181.443V177.507C42.6536 177.083 42.5456 176.767 42.3296 176.559C42.1216 176.351 41.8096 176.247 41.3936 176.247C41.0336 176.247 40.7136 176.327 40.4336 176.487C40.1616 176.647 39.9456 176.867 39.7856 177.147C39.6336 177.427 39.5576 177.759 39.5576 178.143L39.4016 176.679C39.6016 176.223 39.9096 175.863 40.3256 175.599C40.7416 175.335 41.2256 175.203 41.7776 175.203C42.4336 175.203 42.9496 175.387 43.3256 175.755C43.7016 176.123 43.8896 176.611 43.8896 177.219V181.443H42.6536ZM49.3086 181.443C49.2686 181.291 49.2406 181.123 49.2246 180.939C49.2166 180.755 49.2126 180.531 49.2126 180.267H49.1526V177.351C49.1526 176.959 49.0526 176.667 48.8526 176.475C48.6606 176.275 48.3526 176.175 47.9286 176.175C47.5206 176.175 47.1926 176.255 46.9446 176.415C46.7046 176.575 46.5646 176.803 46.5246 177.099H45.3366C45.3926 176.523 45.6526 176.063 46.1166 175.719C46.5806 175.375 47.2006 175.203 47.9766 175.203C48.7766 175.203 49.3766 175.391 49.7766 175.767C50.1766 176.135 50.3766 176.679 50.3766 177.399V180.267C50.3766 180.451 50.3886 180.639 50.4126 180.831C50.4366 181.023 50.4726 181.227 50.5206 181.443H49.3086ZM47.1966 181.563C46.5726 181.563 46.0766 181.411 45.7086 181.107C45.3406 180.795 45.1566 180.375 45.1566 179.847C45.1566 179.303 45.3486 178.875 45.7326 178.563C46.1246 178.243 46.6846 178.027 47.4126 177.915L49.4286 177.591V178.467L47.6046 178.755C47.1966 178.819 46.8886 178.927 46.6806 179.079C46.4806 179.231 46.3806 179.451 46.3806 179.739C46.3806 180.019 46.4726 180.231 46.6566 180.375C46.8486 180.511 47.1246 180.579 47.4846 180.579C47.9646 180.579 48.3606 180.463 48.6726 180.231C48.9926 179.999 49.1526 179.707 49.1526 179.355L49.3086 180.243C49.1646 180.667 48.9086 180.995 48.5406 181.227C48.1726 181.451 47.7246 181.563 47.1966 181.563ZM54.4346 181.443V172.803H55.6826V181.443H54.4346ZM58.7786 181.443V177.507C58.7786 177.083 58.6706 176.767 58.4546 176.559C58.2466 176.351 57.9346 176.247 57.5186 176.247C57.1586 176.247 56.8386 176.327 56.5586 176.487C56.2866 176.647 56.0706 176.867 55.9106 177.147C55.7586 177.427 55.6826 177.759 55.6826 178.143L55.5266 176.679C55.7266 176.223 56.0346 175.863 56.4506 175.599C56.8666 175.335 57.3506 175.203 57.9026 175.203C58.5586 175.203 59.0746 175.387 59.4506 175.755C59.8266 176.123 60.0146 176.611 60.0146 177.219V181.443H58.7786ZM65.4336 181.443C65.3936 181.291 65.3656 181.123 65.3496 180.939C65.3416 180.755 65.3376 180.531 65.3376 180.267H65.2776V177.351C65.2776 176.959 65.1776 176.667 64.9776 176.475C64.7856 176.275 64.4776 176.175 64.0536 176.175C63.6456 176.175 63.3176 176.255 63.0696 176.415C62.8296 176.575 62.6896 176.803 62.6496 177.099H61.4616C61.5176 176.523 61.7776 176.063 62.2416 175.719C62.7056 175.375 63.3256 175.203 64.1016 175.203C64.9016 175.203 65.5016 175.391 65.9016 175.767C66.3016 176.135 66.5016 176.679 66.5016 177.399V180.267C66.5016 180.451 66.5136 180.639 66.5376 180.831C66.5616 181.023 66.5976 181.227 66.6456 181.443H65.4336ZM63.3216 181.563C62.6976 181.563 62.2016 181.411 61.8336 181.107C61.4656 180.795 61.2816 180.375 61.2816 179.847C61.2816 179.303 61.4736 178.875 61.8576 178.563C62.2496 178.243 62.8096 178.027 63.5376 177.915L65.5536 177.591V178.467L63.7296 178.755C63.3216 178.819 63.0136 178.927 62.8056 179.079C62.6056 179.231 62.5056 179.451 62.5056 179.739C62.5056 180.019 62.5976 180.231 62.7816 180.375C62.9736 180.511 63.2496 180.579 63.6096 180.579C64.0896 180.579 64.4856 180.463 64.7976 180.231C65.1176 179.999 65.2776 179.707 65.2776 179.355L65.4336 180.243C65.2896 180.667 65.0336 180.995 64.6656 181.227C64.2976 181.451 63.8496 181.563 63.3216 181.563ZM68.4618 181.443V174.615C68.4618 173.991 68.6378 173.515 68.9898 173.187C69.3418 172.851 69.8698 172.683 70.5738 172.683C70.7338 172.683 70.8658 172.691 70.9698 172.707C71.0738 172.723 71.1658 172.747 71.2458 172.779V173.739C71.1898 173.723 71.1138 173.707 71.0178 173.691C70.9298 173.675 70.8298 173.667 70.7178 173.667C70.3658 173.667 70.1098 173.755 69.9498 173.931C69.7898 174.099 69.7098 174.339 69.7098 174.651V181.443H68.4618ZM67.2858 176.319V175.323H71.1138V176.319H67.2858ZM75.0386 181.563C74.3266 181.563 73.8026 181.399 73.4666 181.071C73.1386 180.735 72.9746 180.243 72.9746 179.595V173.919L74.2106 173.451V179.607C74.2106 179.927 74.2946 180.163 74.4626 180.315C74.6306 180.467 74.9026 180.543 75.2786 180.543C75.4226 180.543 75.5506 180.531 75.6626 180.507C75.7746 180.483 75.8706 180.455 75.9506 180.423V181.431C75.8626 181.471 75.7386 181.503 75.5786 181.527C75.4186 181.551 75.2386 181.563 75.0386 181.563ZM71.7506 176.319V175.323H75.9506V176.319H71.7506ZM80.8907 181.443C80.8507 181.291 80.8227 181.123 80.8067 180.939C80.7987 180.755 80.7947 180.531 80.7947 180.267H80.7347V177.351C80.7347 176.959 80.6347 176.667 80.4347 176.475C80.2427 176.275 79.9347 176.175 79.5107 176.175C79.1027 176.175 78.7747 176.255 78.5267 176.415C78.2867 176.575 78.1467 176.803 78.1067 177.099H76.9187C76.9747 176.523 77.2347 176.063 77.6987 175.719C78.1627 175.375 78.7827 175.203 79.5587 175.203C80.3587 175.203 80.9587 175.391 81.3587 175.767C81.7587 176.135 81.9587 176.679 81.9587 177.399V180.267C81.9587 180.451 81.9707 180.639 81.9947 180.831C82.0187 181.023 82.0547 181.227 82.1027 181.443H80.8907ZM78.7787 181.563C78.1547 181.563 77.6587 181.411 77.2907 181.107C76.9227 180.795 76.7387 180.375 76.7387 179.847C76.7387 179.303 76.9307 178.875 77.3147 178.563C77.7067 178.243 78.2667 178.027 78.9947 177.915L81.0107 177.591V178.467L79.1867 178.755C78.7787 178.819 78.4707 178.927 78.2627 179.079C78.0627 179.231 77.9627 179.451 77.9627 179.739C77.9627 180.019 78.0547 180.231 78.2387 180.375C78.4307 180.511 78.7067 180.579 79.0667 180.579C79.5467 180.579 79.9427 180.463 80.2547 180.231C80.5747 179.999 80.7347 179.707 80.7347 179.355L80.8907 180.243C80.7467 180.667 80.4907 180.995 80.1227 181.227C79.7547 181.451 79.3067 181.563 78.7787 181.563ZM83.6494 181.443V172.803H84.8974V181.443H83.6494ZM86.6494 181.443V175.323H87.8974V181.443H86.6494ZM89.6494 181.443V172.647H90.8974V181.443H89.6494ZM93.6214 181.443L90.6094 178.263L93.5254 175.323H95.0974L91.7854 178.539L91.8454 177.975L95.2174 181.443H93.6214Z" fill="white" fill-opacity="0.8"/>
<g filter="url(#filter1_i_14007_2445)">
<path d="M24 11.9425C24 5.59123 29.1487 0.442505 35.5 0.442505H73.5C79.8513 0.442505 85 5.59123 85 11.9425C85 18.2938 79.8513 23.4425 73.5 23.4425H35.5C29.1487 23.4425 24 18.2938 24 11.9425Z" fill="#6F060B"/>
<path d="M43.52 14.6065V9.3625H44.36V14.6065H43.52ZM41.468 12.3985V11.5825H46.4V12.3985H41.468ZM48.909 16.4425V8.7865L49.161 8.8465C49.065 9.0625 48.881 9.2785 48.609 9.4945C48.337 9.7105 48.021 9.8985 47.661 10.0585C47.309 10.2185 46.945 10.3265 46.569 10.3825V9.4585C46.945 9.3945 47.305 9.2825 47.649 9.1225C47.993 8.9625 48.297 8.7705 48.561 8.5465C48.833 8.3145 49.033 8.0665 49.161 7.8025H49.869V16.4425H48.909ZM54.8925 16.5625C54.2125 16.5625 53.6165 16.3745 53.1045 15.9985C52.6005 15.6145 52.2045 15.0865 51.9165 14.4145C51.6365 13.7345 51.4965 12.9585 51.4965 12.0865C51.4965 11.2145 51.6365 10.4505 51.9165 9.7945C52.1965 9.1305 52.5925 8.6145 53.1045 8.2465C53.6165 7.8705 54.2125 7.6825 54.8925 7.6825C55.5725 7.6825 56.1645 7.8705 56.6685 8.2465C57.1805 8.6145 57.5765 9.1305 57.8565 9.7945C58.1445 10.4505 58.2885 11.2145 58.2885 12.0865C58.2885 12.9665 58.1445 13.7425 57.8565 14.4145C57.5765 15.0865 57.1805 15.6145 56.6685 15.9985C56.1645 16.3745 55.5725 16.5625 54.8925 16.5625ZM54.8925 15.6985C55.3805 15.6985 55.7965 15.5545 56.1405 15.2665C56.4845 14.9705 56.7485 14.5545 56.9325 14.0185C57.1165 13.4745 57.2085 12.8265 57.2085 12.0745C57.2085 11.3305 57.1165 10.6945 56.9325 10.1665C56.7565 9.6385 56.4965 9.2385 56.1525 8.9665C55.8085 8.6865 55.3885 8.5465 54.8925 8.5465C54.3965 8.5465 53.9765 8.6865 53.6325 8.9665C53.2885 9.2465 53.0245 9.6505 52.8405 10.1785C52.6645 10.6985 52.5765 11.3305 52.5765 12.0745C52.5765 12.8265 52.6685 13.4745 52.8525 14.0185C53.0365 14.5625 53.3005 14.9785 53.6445 15.2665C53.9885 15.5545 54.4045 15.6985 54.8925 15.6985ZM59.8384 16.4425L66.2944 7.8025H67.2904L60.8344 16.4425H59.8384ZM65.8624 16.5625C65.5264 16.5625 65.2104 16.4825 64.9144 16.3225C64.6184 16.1625 64.3784 15.9185 64.1944 15.5905C64.0104 15.2625 63.9184 14.8465 63.9184 14.3425C63.9184 13.8385 64.0064 13.4265 64.1824 13.1065C64.3664 12.7785 64.6064 12.5345 64.9024 12.3745C65.1984 12.2145 65.5184 12.1345 65.8624 12.1345C66.2224 12.1345 66.5504 12.2145 66.8464 12.3745C67.1504 12.5345 67.3904 12.7785 67.5664 13.1065C67.7424 13.4265 67.8304 13.8385 67.8304 14.3425C67.8304 14.8465 67.7384 15.2625 67.5544 15.5905C67.3704 15.9185 67.1264 16.1625 66.8224 16.3225C66.5264 16.4825 66.2064 16.5625 65.8624 16.5625ZM65.8624 15.9025C66.1904 15.9025 66.4584 15.7665 66.6664 15.4945C66.8824 15.2225 66.9904 14.8345 66.9904 14.3305C66.9904 13.8345 66.8824 13.4545 66.6664 13.1905C66.4584 12.9265 66.1904 12.7945 65.8624 12.7945C65.5344 12.7945 65.2704 12.9265 65.0704 13.1905C64.8704 13.4465 64.7704 13.8265 64.7704 14.3305C64.7704 14.8425 64.8704 15.2345 65.0704 15.5065C65.2704 15.7705 65.5344 15.9025 65.8624 15.9025ZM61.1824 12.1105C60.8384 12.1105 60.5184 12.0305 60.2224 11.8705C59.9264 11.7105 59.6864 11.4665 59.5024 11.1385C59.3264 10.8105 59.2384 10.3945 59.2384 9.8905C59.2384 9.3865 59.3264 8.9745 59.5024 8.6545C59.6864 8.3265 59.9264 8.0825 60.2224 7.9225C60.5184 7.7625 60.8384 7.6825 61.1824 7.6825C61.5424 7.6825 61.8704 7.7625 62.1664 7.9225C62.4624 8.0825 62.6984 8.3265 62.8744 8.6545C63.0504 8.9745 63.1384 9.3865 63.1384 9.8905C63.1384 10.3945 63.0464 10.8105 62.8624 11.1385C62.6784 11.4665 62.4384 11.7105 62.1424 11.8705C61.8464 12.0305 61.5264 12.1105 61.1824 12.1105ZM61.1824 11.4505C61.5024 11.4505 61.7664 11.3185 61.9744 11.0545C62.1904 10.7825 62.2984 10.3905 62.2984 9.8785C62.2984 9.3825 62.1944 9.0025 61.9864 8.7385C61.7784 8.4745 61.5104 8.3425 61.1824 8.3425C60.8544 8.3425 60.5864 8.4745 60.3784 8.7385C60.1784 8.9945 60.0784 9.3745 60.0784 9.8785C60.0784 10.3905 60.1784 10.7825 60.3784 11.0545C60.5864 11.3185 60.8544 11.4505 61.1824 11.4505Z" fill="white"/>
</g>
</g>
<defs>
<filter id="filter0_i_14007_2445" x="0" y="0.442505" width="114" height="200" filterUnits="userSpaceOnUse" color-interpolation-filters="sRGB">
<feFlood flood-opacity="0" result="BackgroundImageFix"/>
<feBlend mode="normal" in="SourceGraphic" in2="BackgroundImageFix" result="shape"/>
<feColorMatrix in="SourceAlpha" type="matrix" values="0 0 0 0 0 0 0 0 0 0 0 0 0 0 0 0 0 0 127 0" result="hardAlpha"/>
<feOffset dx="4" dy="4"/>
<feGaussianBlur stdDeviation="7.5"/>
<feComposite in2="hardAlpha" operator="arithmetic" k2="-1" k3="1"/>
<feColorMatrix type="matrix" values="0 0 0 0 1 0 0 0 0 1 0 0 0 0 1 0 0 0 0.3 0"/>
<feBlend mode="normal" in2="shape" result="effect1_innerShadow_14007_2445"/>
</filter>
<filter id="filter1_i_14007_2445" x="24" y="0.442505" width="61" height="23" filterUnits="userSpaceOnUse" color-interpolation-filters="sRGB">
<feFlood flood-opacity="0" result="BackgroundImageFix"/>
<feBlend mode="normal" in="SourceGraphic" in2="BackgroundImageFix" result="shape"/>
<feColorMatrix in="SourceAlpha" type="matrix" values="0 0 0 0 0 0 0 0 0 0 0 0 0 0 0 0 0 0 127 0" result="hardAlpha"/>
<feOffset/>
<feGaussianBlur stdDeviation="4.16399"/>
<feComposite in2="hardAlpha" operator="arithmetic" k2="-1" k3="1"/>
<feColorMatrix type="matrix" values="0 0 0 0 1 0 0 0 0 1 0 0 0 0 1 0 0 0 1 0"/>
<feBlend mode="normal" in2="shape" result="effect1_innerShadow_14007_2445"/>
</filter>
<radialGradient id="paint0_radial_14007_2445" cx="0" cy="0" r="1" gradientTransform="matrix(66.0598 141.543 -159.019 71.4186 29.0845 38.7527)" gradientUnits="userSpaceOnUse">
<stop stop-color="#6F060B"/>
<stop offset="1" stop-color="#E50914"/>
</radialGradient>
</defs>
</svg>
